<svg xmlns="http://www.w3.org/2000/svg" width="23.988" height="21.685" viewBox="0 0 23.988 21.685">
  <path id="Aviao" d="M45.7,30.239a1.576,1.576,0,0,0-1.609-.273L23.261,38.148a1.58,1.58,0,0,0,.268,3.02L29,42.262v6.793a1.579,1.579,0,0,0,2.7,1.117l3.077-3.077,4.6,4.05a1.567,1.567,0,0,0,1.039.4,1.6,1.6,0,0,0,.49-.078,1.567,1.567,0,0,0,1.055-1.151l4.245-18.523A1.576,1.576,0,0,0,45.7,30.239Zm-22.084,9.4a.209.209,0,0,1,.142-.23l17.428-6.847L29.521,40.985,23.795,39.84A.209.209,0,0,1,23.614,39.638Zm7.126,9.576a.226.226,0,0,1-.385-.16V43.2l3.4,2.994Zm9.9.795a.226.226,0,0,1-.369.119l-9.511-8.369,14.1-10.187Z" transform="translate(-22.259 -29.855)" fill="#fff"/>
</svg>
