<svg xmlns="http://www.w3.org/2000/svg" width="41.401" height="61.42" viewBox="0 0 41.401 61.42">
  <g id="Grupo_26" data-name="Grupo 26" transform="translate(-271.26 -698.58)">
    <text id="Bom" transform="translate(292 756)" fill="#fff" font-size="10" font-family="Poppins-Regular, Poppins"><tspan x="-11.415" y="0">Bom</tspan></text>
    <g id="_3338081-emoji-emoticon-happy-smiley_106813" data-name="3338081-emoji-emoticon-happy-smiley_106813" transform="translate(253.24 697.22)">
      <ellipse id="Elipse_39" data-name="Elipse 39" cx="19.444" cy="19.5" rx="19.444" ry="19.5" transform="translate(18.704 2)" fill="#ffe585"/>
      <path id="Caminho_83" data-name="Caminho 83" d="M42.86,5.947c-.184,0-.368,0-.551.008a18.175,18.175,0,1,1-18.1,13.61A19.584,19.584,0,1,0,42.86,5.947Z" transform="translate(-3.745 -3.236)" fill="#f90" opacity="0.24"/>
      <path id="Caminho_84" data-name="Caminho 84" d="M20.681,23a18.6,18.6,0,0,1,37.187-.667c.008-.227.013-.455.013-.684A19.588,19.588,0,1,0,33.058,40.579,18.657,18.657,0,0,1,20.681,23Z" transform="translate(0)" fill="#ffefb5"/>
      <g id="Grupo_18" data-name="Grupo 18" transform="translate(25.831 21.502)">
        <path id="Caminho_85" data-name="Caminho 85" d="M58.512,110.208c-.182,6.325,2.016,11.879,7.312,13.371s12.056-1.54,15.2-7.03Z" transform="translate(-58.501 -110.208)" fill="#c7a17b" stroke="#000" stroke-linecap="round" stroke-linejoin="round" stroke-width="2"/>
      </g>
      <path id="Caminho_86" data-name="Caminho 86" d="M30.943,6.963A19.657,19.657,0,1,1,21.7,23.644a19.66,19.66,0,0,1,1.232-6.873" transform="translate(-2.459 -1.64)" fill="none" stroke="#000" stroke-linecap="round" stroke-width="2"/>
      <circle id="Elipse_40" data-name="Elipse 40" cx="1.622" cy="1.622" r="1.622" transform="translate(33.305 11.991)"/>
      <circle id="Elipse_41" data-name="Elipse 41" cx="1.622" cy="1.622" r="1.622" transform="translate(44.64 14.972)"/>
      <g id="Grupo_19" data-name="Grupo 19" transform="translate(19.02 4.151)">
        <path id="Caminho_87" data-name="Caminho 87" d="M26.222,23.57a6.948,6.948,0,0,1,2.836-3.4l0,0c1.158-.626,1.158-1.648,0-2.272l0,0a7.853,7.853,0,0,1-2.979-3.129c-.485-1.1-1.279-1.1-1.765,0a7.8,7.8,0,0,1-2.984,3.129l-.005,0c-1.155.625-1.155,1.646,0,2.273l.005,0a6.89,6.89,0,0,1,2.836,3.4l.292.882c.407,1.248,1.066,1.248,1.477,0Z" transform="translate(-20.458 -13.936)" fill="#ffe2a8" stroke="#000" stroke-width="2"/>
      </g>
      <path id="Caminho_88" data-name="Caminho 88" d="M57.445,116.415s11.038-4.97,16.929,5.212c0,0,4.872-3.938,4.872-5.078l-22.514-6.341S55.459,114.429,57.445,116.415Z" transform="translate(-30.889 -88.706)" fill="#6e6e96" opacity="0.25"/>
    </g>
  </g>
</svg>
