<svg xmlns="http://www.w3.org/2000/svg" width="30" height="26" viewBox="0 0 30 26">
  <g id="calendar-with-a-clock-time-tools_icon-icons.com_56831" transform="translate(-0.001)">
    <path id="Caminho_33" data-name="Caminho 33" d="M3.751,4.063V.813A.881.881,0,0,1,4.689,0a.881.881,0,0,1,.937.813v3.25a.881.881,0,0,1-.937.812A.881.881,0,0,1,3.751,4.063Zm15.938.812a.881.881,0,0,0,.938-.812V.813a.947.947,0,0,0-1.875,0v3.25A.881.881,0,0,0,19.689,4.875ZM30,19.5c0,3.59-3.358,6.5-7.5,6.5S15,23.09,15,19.5,18.359,13,22.5,13,30,15.91,30,19.5Zm-1.875,0c0-2.688-2.523-4.875-5.625-4.875s-5.625,2.187-5.625,4.875S19.4,24.375,22.5,24.375,28.126,22.188,28.126,19.5ZM7.5,9.75H3.751V13H7.5Zm-3.75,8.125H7.5v-3.25H3.751ZM9.376,13h3.75V9.75H9.376Zm0,4.875h3.75v-3.25H9.376Zm-7.5,1.463V8.125H22.5v3.25h1.875V5.037A1.92,1.92,0,0,0,22.345,3.25h-.782v.813a1.766,1.766,0,0,1-1.875,1.625,1.766,1.766,0,0,1-1.875-1.625V3.25H6.563v.813A1.766,1.766,0,0,1,4.689,5.688,1.766,1.766,0,0,1,2.814,4.063V3.25H2.033A1.921,1.921,0,0,0,0,5.037v14.3a1.923,1.923,0,0,0,2.032,1.787H13.126V19.5H2.033A.163.163,0,0,1,1.876,19.338ZM18.751,13V9.75H15V13Zm6.563,6.5H22.5V17.062a.947.947,0,0,0-1.875,0v3.25a.881.881,0,0,0,.937.813h3.75a.821.821,0,1,0,0-1.625Z" fill="#fff"/>
  </g>
</svg>
