<svg xmlns="http://www.w3.org/2000/svg" width="30" height="26" viewBox="0 0 30 26">
  <path id="car_vehicle_transport_icon_144665" d="M30.167,24.152a2.087,2.087,0,1,1,2.083,1.97,2.029,2.029,0,0,1-2.083-1.97ZM16.833,28.879h8.333v-1.97H16.833ZM9.75,25.727a1.973,1.973,0,1,1,0-3.939,1.973,1.973,0,1,1,0,3.939ZM13.833,11.7a.835.835,0,0,1,.783-.544H27.375a.864.864,0,0,1,.817.615l2.583,6.476H11.225L13.833,11.7ZM36,17.689v-.628a1.217,1.217,0,0,0-1.25-1.182H33.392l-2.058-5.161A4.151,4.151,0,0,0,27.383,8H14.608a4.123,4.123,0,0,0-3.917,2.655L8.608,15.879H7.25A1.217,1.217,0,0,0,6,17.061v.628a1.2,1.2,0,0,0,.979,1.153l.371.078L6.708,20.3a7.363,7.363,0,0,0-.7,3.112L6,32.724A1.32,1.32,0,0,0,7.35,34h2.3A1.32,1.32,0,0,0,11,32.724V31.242H9.75V30.061h22.5v1.182H31v1.481A1.32,1.32,0,0,0,32.35,34h2.3A1.32,1.32,0,0,0,36,32.724v-9.3a7.326,7.326,0,0,0-.708-3.136L34.65,18.92l.371-.078A1.2,1.2,0,0,0,36,17.689Z" transform="translate(-6 -8)" fill="#fff" fill-rule="evenodd"/>
</svg>
