<svg xmlns="http://www.w3.org/2000/svg" width="30" height="26" viewBox="0 0 30 26">
  <g id="_3643769-building-home-house-main-menu-start_113416_1_" data-name="3643769-building-home-house-main-menu-start_113416 (1)" transform="translate(-1.07 -3)">
    <path id="Caminho_30" data-name="Caminho 30" d="M30.074,15a1,1,0,0,1-.581-.19L16.038,5.23,2.584,14.81a1,1,0,0,1-1.163-1.62l14.036-10a1,1,0,0,1,1.163,0l14.036,10A1,1,0,0,1,30.074,15Z" transform="translate(0)" fill="#fff"/>
    <path id="Caminho_31" data-name="Caminho 31" d="M5,9A1,1,0,0,1,4,8V4A1,1,0,0,1,5,3H9A1,1,0,0,1,9,5H6V8A1,1,0,0,1,5,9Z" fill="#fff"/>
    <path id="Caminho_32" data-name="Caminho 32" d="M25.067,29H20.051a1,1,0,0,1-1-1V21H13.029v7a1,1,0,0,1-1,1H7.01A3,3,0,0,1,4,26V16a1,1,0,0,1,2.006,0V26a1,1,0,0,0,1,1h4.013V20a1,1,0,0,1,1-1h8.026a1,1,0,0,1,1,1v7h4.013a1,1,0,0,0,1-1V16a1,1,0,0,1,2.006,0V26a3,3,0,0,1-3.01,3Z" transform="translate(0)" fill="#fff"/>
  </g>
</svg>
