<svg xmlns="http://www.w3.org/2000/svg" width="30" height="26" viewBox="0 0 30 26">
  <g id="_1" data-name="1" transform="translate(-62.71 -48)">
    <path id="Caminho_39" data-name="Caminho 39" d="M79.965,74H75.459a1.073,1.073,0,0,1-1.114-.868l-.334-2.722a12.448,12.448,0,0,1-1.362-.489L70.2,71.641a1.25,1.25,0,0,1-1.493-.069l-3.186-2.761a.877.877,0,0,1-.079-1.294l1.986-2.13a9.158,9.158,0,0,1-.565-1.18l-3.147-.291a1.034,1.034,0,0,1-1-.964V59.047a1.034,1.034,0,0,1,1-.964l3.141-.289a9.161,9.161,0,0,1,.565-1.18l-1.986-2.13a.877.877,0,0,1,.079-1.294L68.7,50.429a1.25,1.25,0,0,1,1.493-.069l2.458,1.72a12.44,12.44,0,0,1,1.362-.489l.334-2.722A1.073,1.073,0,0,1,75.459,48h4.506a1.073,1.073,0,0,1,1.114.868l.333,2.722a12.454,12.454,0,0,1,1.363.489l2.457-1.72a1.25,1.25,0,0,1,1.493.069l3.186,2.761a.877.877,0,0,1,.079,1.294L88,56.612a9.261,9.261,0,0,1,.565,1.18l3.141.289a1.034,1.034,0,0,1,1,.964v3.905a1.033,1.033,0,0,1-1,.966l-3.141.289a9.259,9.259,0,0,1-.565,1.18l1.986,2.13a.877.877,0,0,1-.079,1.294l-3.186,2.763a1.25,1.25,0,0,1-1.493.069l-2.457-1.72a12.453,12.453,0,0,1-1.363.489l-.333,2.722A1.074,1.074,0,0,1,79.965,74Zm-3.5-1.94h2.492l.305-2.494a1.024,1.024,0,0,1,.825-.835,10.007,10.007,0,0,0,2.251-.81,1.261,1.261,0,0,1,1.269.085l2.251,1.576,1.762-1.527L85.8,66.109a.867.867,0,0,1-.1-1.1,7.387,7.387,0,0,0,.932-1.949,1.086,1.086,0,0,1,.964-.715l2.877-.265v-2.16L87.6,59.655a1.086,1.086,0,0,1-.964-.715,7.387,7.387,0,0,0-.932-1.95.868.868,0,0,1,.1-1.1l1.819-1.951-1.762-1.527L83.6,53.989a1.261,1.261,0,0,1-1.269.085,10.01,10.01,0,0,0-2.249-.808,1.024,1.024,0,0,1-.825-.835l-.3-2.491H76.464l-.305,2.494a1.025,1.025,0,0,1-.826.835,9.989,9.989,0,0,0-2.247.81,1.261,1.261,0,0,1-1.269-.085l-2.249-1.579-1.761,1.527,1.82,1.951a.868.868,0,0,1,.1,1.1,7.433,7.433,0,0,0-.932,1.949,1.086,1.086,0,0,1-.964.715l-2.878.265v2.159l2.878.265a1.086,1.086,0,0,1,.964.715,7.434,7.434,0,0,0,.931,1.947.868.868,0,0,1-.1,1.1l-1.819,1.947,1.762,1.527,2.252-1.576a1.261,1.261,0,0,1,1.269-.085,9.992,9.992,0,0,0,2.249.808,1.025,1.025,0,0,1,.826.835Zm15.129-9.107Z" transform="translate(0 0)" fill="#fff"/>
    <path id="Caminho_40" data-name="Caminho 40" d="M179.86,170.641c-4.142,0-7.5-2.91-7.5-6.5s3.358-6.5,7.5-6.5,7.5,2.91,7.5,6.5S184,170.638,179.86,170.641Zm0-10.867c-2.781,0-5.037,1.955-5.037,4.366s2.255,4.366,5.037,4.366,5.038-1.955,5.038-4.366S182.641,159.777,179.86,159.775Z" transform="translate(-102.149 -103.141)" fill="#fff"/>
  </g>
</svg>
