<svg xmlns="http://www.w3.org/2000/svg" xmlns:xlink="http://www.w3.org/1999/xlink" width="50" height="50" viewBox="0 0 50 50">
  <defs>
    <linearGradient id="linear-gradient" x1="0.07" y1="0.835" x2="0.623" y2="0.828" gradientUnits="objectBoundingBox">
      <stop offset="0" stop-color="#2a89f5"/>
      <stop offset="1" stop-color="#2a64f5"/>
    </linearGradient>
  </defs>
  <g id="Grupo_151" data-name="Grupo 151" transform="translate(-44 -223)">
    <circle id="Elipse_52" data-name="Elipse 52" cx="25" cy="25" r="25" transform="translate(44 223)" fill="url(#linear-gradient)"/>
    <g id="Icons" transform="translate(53 232)">
      <path id="Caminho_111" data-name="Caminho 111" d="M25,4H7A5,5,0,0,0,2,9V21a5,5,0,0,0,5,5h4a1.014,1.014,0,0,1,.8.4l1.8,2.4a3,3,0,0,0,4.8,0l1.8-2.4A1.014,1.014,0,0,1,21,26h4a5,5,0,0,0,5-5V9A5,5,0,0,0,25,4Zm3,17a3.009,3.009,0,0,1-3,3H21a3.012,3.012,0,0,0-2.4,1.2l-1.8,2.4a1.041,1.041,0,0,1-1.6,0l-1.8-2.4A3.012,3.012,0,0,0,11,24H7a3.009,3.009,0,0,1-3-3V9A3.009,3.009,0,0,1,7,6H25a3.009,3.009,0,0,1,3,3Z" fill="#fff"/>
      <path id="Caminho_112" data-name="Caminho 112" d="M20.14,13.3l-2.27-.44-.89-2.2a1.058,1.058,0,0,0-1.96,0l-.89,2.2-2.27.44a1.065,1.065,0,0,0-.43,1.9L13,16.37l-.46,2.1a2.4,2.4,0,0,0-.05.46A1.071,1.071,0,0,0,13.56,20a1.1,1.1,0,0,0,.61-.19L16,18.54l1.82,1.26a1.036,1.036,0,0,0,.61.2,1.071,1.071,0,0,0,1.07-1.07,2.4,2.4,0,0,0-.05-.46L19,16.37l1.58-1.18a1.056,1.056,0,0,0-.44-1.89Zm-.1.49Zm-8.31,1Z" fill="#fff"/>
    </g>
  </g>
</svg>
