<svg xmlns="http://www.w3.org/2000/svg" xmlns:xlink="http://www.w3.org/1999/xlink" width="22.133" height="16.6" viewBox="0 0 22.133 16.6">
  <defs>
    <linearGradient id="linear-gradient" y1="0.442" x2="0.95" y2="0.442" gradientUnits="objectBoundingBox">
      <stop offset="0" stop-color="#2a89f5"/>
      <stop offset="1" stop-color="#2a64f5"/>
    </linearGradient>
  </defs>
  <path id="email" d="M19.366,64H2.767A2.767,2.767,0,0,0,0,66.767V77.833A2.767,2.767,0,0,0,2.767,80.6h16.6a2.767,2.767,0,0,0,2.767-2.767V66.767A2.767,2.767,0,0,0,19.366,64Zm-4.554,7.383,5.856-5.019a1.333,1.333,0,0,1,.081.4V77.833a1.31,1.31,0,0,1-.055.272Zm4.554-6a1.281,1.281,0,0,1,.259.053l-8.559,7.337L2.507,65.436a1.281,1.281,0,0,1,.259-.053ZM1.438,78.1a1.294,1.294,0,0,1-.055-.27V66.767a1.334,1.334,0,0,1,.082-.4l5.854,5.017Zm1.329,1.113a1.331,1.331,0,0,1-.394-.08l6-6.854,2.247,1.925a.688.688,0,0,0,.9,0l2.247-1.925,6,6.854a1.323,1.323,0,0,1-.394.08Z" transform="translate(0 -64)" fill="url(#linear-gradient)"/>
</svg>
