<svg xmlns="http://www.w3.org/2000/svg" width="40.935" height="77.649" viewBox="0 0 40.935 77.649">
  <g id="Grupo_30" data-name="Grupo 30" transform="translate(-29.778 -696.351)">
    <g id="_3338093-anger-angry-emoji-emoticon-face-smiley_106811" data-name="3338093-anger-angry-emoji-emoticon-face-smiley_106811" transform="translate(28.255 690.312)">
      <ellipse id="Elipse_31" data-name="Elipse 31" cx="19.443" cy="19.82" rx="19.443" ry="19.82" transform="translate(2.353 7.041)" fill="#ff9191"/>
      <path id="Caminho_54" data-name="Caminho 54" d="M73.484,99.365S68.464,103.54,68,105.951c0,0,7.973-4.265,14.926,0,0,0-2.21-4.781-5.3-6.585C77.626,99.365,75.116,97.734,73.484,99.365Z" transform="translate(-53.558 -74.273)" fill="#8a0000" opacity="0.14"/>
      <path id="Caminho_55" data-name="Caminho 55" d="M23.887,8.542c-.183,0-.366,0-.547.008A18.2,18.2,0,0,1,40.833,26.907,18.193,18.193,0,0,1,22.817,45.272,18.193,18.193,0,0,1,4.8,26.907a18.728,18.728,0,0,1,.577-4.625,20.156,20.156,0,0,0-.933,6.08,19.634,19.634,0,0,0,19.443,19.82A19.634,19.634,0,0,0,43.33,28.362,19.634,19.634,0,0,0,23.887,8.542Z" transform="translate(-1.991 -1.51)" fill="#8a0000" opacity="0.14"/>
      <path id="Caminho_56" data-name="Caminho 56" d="M3.962,27.883A18.648,18.648,0,0,1,22.424,9.053,18.632,18.632,0,0,1,40.873,27.209c.008-.229.013-.459.013-.691A19.64,19.64,0,0,0,21.443,6.688,19.64,19.64,0,0,0,2,26.518,19.781,19.781,0,0,0,16.248,45.632,18.817,18.817,0,0,1,3.962,27.883Z" transform="translate(0 0)" fill="#ffabab"/>
      <path id="Caminho_57" data-name="Caminho 57" d="M42.119,20.377A20.087,20.087,0,0,1,43.184,33.3a19.292,19.292,0,0,1-31.3,10.326A20.049,20.049,0,0,1,5.5,23.515,19.53,19.53,0,0,1,23.987,8.586a19.3,19.3,0,0,1,8.854,1.991" transform="translate(-2.358 -1.544)" fill="none" stroke="#000" stroke-linecap="round" stroke-width="2"/>
      <g id="Grupo_6" data-name="Grupo 6" transform="translate(15.962 33.258)">
        <path id="Caminho_58" data-name="Caminho 58" d="M76.529,149.391c0-2.388,2.752-4.324,6.146-4.324s6.146,1.936,6.146,4.324-2.752.217-6.146.217S76.529,151.778,76.529,149.391Z" transform="translate(-76.464 -145.067)" fill="#fff" stroke="#000" stroke-linecap="round" stroke-width="2"/>
        <path id="Caminho_59" data-name="Caminho 59" d="M82.323,152.961c3.394,0,6.146,2.171,6.146-.217s-2.752-4.324-6.146-4.324-6.146,1.936-6.146,4.324S78.929,152.961,82.323,152.961Zm.04-2.753c2.946,0,5.335.986,5.335,2.2s-2.388-.253-5.335-.253-5.335,1.47-5.335.253S79.416,150.208,82.363,150.208Z" transform="translate(-76.177 -147.798)" fill="#6e6e96" opacity="0.15"/>
      </g>
      <g id="Grupo_7" data-name="Grupo 7" transform="translate(24.161 14.12)">
        <line id="Linha_4" data-name="Linha 4" y1="10.658" x2="6.412" fill="none" stroke="#000" stroke-linecap="round" stroke-linejoin="round" stroke-width="2"/>
        <path id="Caminho_60" data-name="Caminho 60" d="M119.916,75.865l9.294-6.074S127.714,82.478,119.916,75.865Z" transform="translate(-119.916 -65.207)" fill="#fff" stroke="#000" stroke-linecap="round" stroke-linejoin="round" stroke-width="2"/>
      </g>
      <g id="Grupo_8" data-name="Grupo 8" transform="translate(10.543 14.12)">
        <line id="Linha_5" data-name="Linha 5" x1="6.412" y1="10.658" transform="translate(2.881)" fill="none" stroke="#000" stroke-linecap="round" stroke-linejoin="round" stroke-width="2"/>
        <path id="Caminho_61" data-name="Caminho 61" d="M56.75,75.865l-9.294-6.074S48.952,82.478,56.75,75.865Z" transform="translate(-47.456 -65.207)" fill="#fff" stroke="#000" stroke-linecap="round" stroke-linejoin="round" stroke-width="2"/>
      </g>
      <g id="Grupo_14" data-name="Grupo 14" transform="translate(32.727 7.315)">
        <g id="Grupo_9" data-name="Grupo 9" transform="translate(0 0)">
          <path id="Caminho_62" data-name="Caminho 62" d="M174.773,14.8A1.5,1.5,0,0,0,173.2,13.4a1.63,1.63,0,0,1-1.577-1.669,1.493,1.493,0,1,0-2.965,0,1.63,1.63,0,0,1-1.577,1.669A1.5,1.5,0,0,0,165.5,14.8a1.5,1.5,0,0,0,1.577,1.391,1.63,1.63,0,0,1,1.577,1.669,1.493,1.493,0,1,0,2.965,0,1.63,1.63,0,0,1,1.577-1.669A1.5,1.5,0,0,0,174.773,14.8Z" transform="translate(-165.5 -10.067)" fill="#ffe2a8"/>
        </g>
        <g id="Grupo_10" data-name="Grupo 10" transform="translate(0)">
          <path id="Caminho_63" data-name="Caminho 63" d="M165.5,13.4h1.577a1.63,1.63,0,0,0,1.577-1.669V10.067" transform="translate(-165.5 -10.067)" fill="none" stroke="#000" stroke-width="2"/>
        </g>
        <g id="Grupo_11" data-name="Grupo 11" transform="translate(0 6.119)">
          <path id="Caminho_64" data-name="Caminho 64" d="M165.5,43.067h1.577a1.63,1.63,0,0,1,1.577,1.669V46.4" transform="translate(-165.5 -43.067)" fill="none" stroke="#000" stroke-width="2"/>
        </g>
        <g id="Grupo_12" data-name="Grupo 12" transform="translate(6.119)">
          <path id="Caminho_65" data-name="Caminho 65" d="M201.654,13.4h-1.577a1.63,1.63,0,0,1-1.577-1.669V10.067" transform="translate(-198.5 -10.067)" fill="none" stroke="#000" stroke-width="2"/>
        </g>
        <g id="Grupo_13" data-name="Grupo 13" transform="translate(6.119 6.119)">
          <path id="Caminho_66" data-name="Caminho 66" d="M201.654,43.067h-1.577a1.63,1.63,0,0,0-1.577,1.669V46.4" transform="translate(-198.5 -43.067)" fill="none" stroke="#000" stroke-width="2"/>
        </g>
      </g>
    </g>
    <text id="Muito_ruim" data-name="Muito
ruim" transform="translate(50 754)" fill="#fff" font-size="10" font-family="Poppins-Regular, Poppins"><tspan x="-13.755" y="0">Muito</tspan><tspan x="-11.445" y="16">ruim</tspan></text>
  </g>
</svg>
