<?xml version="1.0" encoding="UTF-8"?>
<!DOCTYPE svg PUBLIC "-//W3C//DTD SVG 1.1//EN" "http://www.w3.org/Graphics/SVG/1.1/DTD/svg11.dtd">
<!-- Creator: CorelDRAW 2020 (64 Bit) -->
<svg xmlns="http://www.w3.org/2000/svg" xml:space="preserve" width="3.38666cm" height="1.77637cm" version="1.1" style="shape-rendering:geometricPrecision; text-rendering:geometricPrecision; image-rendering:optimizeQuality; fill-rule:evenodd; clip-rule:evenodd"
viewBox="0 0 3386.66 1776.37"
 xmlns:xlink="http://www.w3.org/1999/xlink"
 xmlns:xodm="http://www.corel.com/coreldraw/odm/2003">
 <defs>
  <style type="text/css">
   <![CDATA[
    .fil2 {fill:#1E1E1E;fill-rule:nonzero}
    .fil0 {fill:url(#id0)}
    .fil1 {fill:url(#id1)}
   ]]>
  </style>
  <linearGradient id="id0" gradientUnits="userSpaceOnUse" x1="512.88" y1="81.41" x2="512.88" y2="1309.04">
   <stop offset="0" style="stop-opacity:0.239216; stop-color:#111111"/>
   <stop offset="0.870588" style="stop-opacity:0.980392; stop-color:#143076"/>
   <stop offset="1" style="stop-opacity:1; stop-color:#15327B"/>
  </linearGradient>
  <linearGradient id="id1" gradientUnits="userSpaceOnUse" xlink:href="#id0" x1="2614.97" y1="0" x2="2614.97" y2="1847.05">
  </linearGradient>
 </defs>
 <g id="Camada_x0020_1">
  <metadata id="CorelCorpID_0Corel-Layer"/>
  <g id="Grupo_159" data-name="Grupo 159">
   <g id="Grupo_16" data-name="Grupo 16">
    <path id="Caminho_2" class="fil0" d="M-0 830.93c0.44,214.76 212.27,287.07 389,234.88 34.51,-10.21 56.37,-26.65 83.63,-32.99 -9.17,110.16 -119.92,265.57 -122.76,276.22l349.87 0c-2.99,-36.01 -41.54,-44.01 -79.93,-122.62 -15.44,-31.62 -45.51,-112.03 -48.99,-153.59 26.35,6.12 47.3,19.9 76.06,28.29 327.94,95.67 561.49,-261.19 186.42,-591.51l-305.41 -388.2c-21.66,5.78 -115.73,150.18 -138.55,180.63 -44.92,60.4 -94.96,117.75 -148.37,170.79 -28.09,28.09 -51.6,51.83 -79.81,79.78l-72.8 86.82c-39.21,59.42 -87.98,135.55 -88.36,229.72l0 1.78z" data-name="Caminho 2"/>
    <path id="Caminho_2-2" class="fil1" d="M1843.3 1126.73c0,323.91 319.09,433.06 585.28,354.4 51.94,-15.35 84.82,-40.09 125.83,-49.67 -9.46,113.7 -90.83,259.42 -142.4,344.91l441.71 0c-21.96,-24.29 -49.94,-56.63 -77.87,-113.82 -23.24,-47.58 -68.47,-168.56 -73.68,-231.09 39.65,9.23 71.16,29.94 114.44,42.57 493.4,143.94 844.81,-392.98 280.44,-889.97l-459.52 -584.06c-32.6,8.7 -174.13,225.95 -208.46,271.77 -67.59,90.89 -142.88,177.18 -223.25,256.98 -42.26,42.27 -77.64,77.98 -120.08,120.04l-109.49 130.63c-59.21,89.78 -132.95,204.87 -132.95,347.31z" data-name="Caminho 2"/>
   </g>
   <path id="Caminho_34" class="fil2" d="M-0 1477.26c283.23,-105.83 566.46,-211.66 865.48,-215.21 299.02,-3.54 613.83,95.19 877.24,186.24 263.4,91.05 475.41,174.42 740.83,177.97 265.42,3.55 584.27,-72.73 903.11,-149l0 299.11 -3386.66 0 0 -299.11z" data-name="Caminho 34"/>
  </g>
 </g>
</svg>
