<svg xmlns="http://www.w3.org/2000/svg" width="20.155" height="26.058" viewBox="0 0 20.155 26.058">
  <g id="delete_remove_bin_icon-icons.com_72400" transform="translate(-25.23 -19.462)">
    <path id="Caminho_126" data-name="Caminho 126" d="M45.385,27.6V23.737a.815.815,0,0,0-.814-.815h-5.4V20.276a.814.814,0,0,0-.814-.814H32.254a.815.815,0,0,0-.815.814v2.646H26.044a.815.815,0,0,0-.814.815V27.6a.814.814,0,0,0,.814.814h.234v16.3a.814.814,0,0,0,.814.814H41.214A3.126,3.126,0,0,0,44.337,42.4V28.41h.233A.815.815,0,0,0,45.385,27.6ZM33.068,21.091h4.479v1.832H33.068ZM42.709,42.4a1.5,1.5,0,0,1-1.495,1.493H27.907V28.41h14.8Zm1.047-15.617h-16.9v-2.23h16.9v2.23Z" transform="translate(0 0)" fill="red"/>
    <rect id="Retângulo_68" data-name="Retângulo 68" width="1.629" height="9.568" transform="translate(30.421 31.677)" fill="red"/>
    <rect id="Retângulo_69" data-name="Retângulo 69" width="1.629" height="9.568" transform="translate(34.492 31.677)" fill="red"/>
    <rect id="Retângulo_70" data-name="Retângulo 70" width="1.629" height="9.568" transform="translate(38.564 31.677)" fill="red"/>
  </g>
</svg>
