<svg xmlns="http://www.w3.org/2000/svg" width="72.165" height="33.976" viewBox="0 0 72.165 33.976">
  <g id="Grupo_147" data-name="Grupo 147" transform="translate(-342.127 -12.012)">
    <g id="Camada_x0020_1" transform="translate(346.858 11.012)">
      <g id="_2059580279440" transform="translate(-4.732 1)">
        <path id="Caminho_3" data-name="Caminho 3" d="M3161.291,531.841c.491.21.635.377.9,1.036.127,3.189-3.151,2.651-6.143,2.651-2.892,0-6.052-.121-8.91.016a12.343,12.343,0,0,1-.762,2.424,6.794,6.794,0,0,1-1.384,1.986c-.688.7-2.745,2.223-4.359,2.173l-.773.231.023,2.666a38.433,38.433,0,0,0,4.691-.117c.793-.355,1.065-.681,1.112-1.747.152-3.488-1.814-2.837,6.9-2.852,4.239-.007,2.85-.392,5.074,1.816l1.7,1.762a2.808,2.808,0,0,0,2.23,1.177c1.018.033,6.217.133,6.852-.029-1.272-1.648-4.955-4.525-5.313-5.325.5-.286,1.486-.473,2.119-.751,4.627-2.03,6.081-8.834-1.13-11.616-3.11-1.2-7.06-.9-10.725-.9-1.72,0-10.878-.11-11.736.019.092.423,1.123,1.131,1.536,1.478,1.34,1.125,2.36,3.116,2.964,3.268.421.106,2.583.006,3.194.007q3.119.006,6.238,0C3157.435,531.221,3159.928,530.889,3161.291,531.841Z" transform="translate(-3096.956 -519.231)" fill="#fefefe" fill-rule="evenodd"/>
        <path id="Caminho_4" data-name="Caminho 4" d="M15.008,974.926c-2.256-.229-12.742.323-13.777-.1-.433-.322.189-2.266-.273-2.748-.354-.368-5.48-.12-5.526-.083a.55.55,0,0,0-.1.288,1.791,1.791,0,0,0-.035.33c-.01.238.015.565.019.815.026,1.785-.174,10.68.118,10.99a11.126,11.126,0,0,0,4.862-.262c1.641-.948.214-3.4.957-4.346.293-.264,5.867-.124,6.674-.13,3.944-.03,3.08-.412,5.143,1.774,3.313,3.51,2.442,3.038,7.333,3.031,1.029,0,2.5.107,3.461.02-.1-.546-2.626-2.74-3.185-3.267C16.794,977.572,17.989,975.027,15.008,974.926Z" transform="translate(4.732 -958.632)" fill="#fefefe" fill-rule="evenodd"/>
        <path id="Caminho_5" data-name="Caminho 5" d="M17.137,527.943c.8.153.922.528,1.626.671.25-.325,3.274-4.164,3.3-4.29-3.6-1.743-9.694-1.313-14.385-1.313-2.618,0-5.238.006-7.855,0-1.32,0-2.434.186-2.853,1.083a11.952,11.952,0,0,0-.091,3.715c.58.2,12.788.062,15.19.066,1.575,0,3.641.131,5.065.072Z" transform="translate(3.239 -515.843)" fill="#fefefe" fill-rule="evenodd"/>
        <path id="Caminho_6" data-name="Caminho 6" d="M1667.321,25.609c-.368.721-.713.576-.856,1.278l1.178-.042c.628-.2.336-.834.774-1.592.9-1.555,2.1-3.6,1.945-5.611-.617,0-2.056,1.486-3.679,2.013-5.515,1.789-10.163-3.171-7.255-7.691,2.169-3.373,6.13-5.618,8.777-8.676a40.189,40.189,0,0,1,2.651-3.213,10.116,10.116,0,0,1,1.274,1.584c3.027,3.9,8.031,6.979,10.133,10.2,1.8,2.752,1.04,5.827-2.057,7.587a6.754,6.754,0,0,1-4.832.252c-2.139-.759-2.609-2.117-3.861-2.136a11.253,11.253,0,0,0,1.67,5.4c.02.024.053.027.063.07.059.261.366.133.582,1.031-.364.094-.458.047-.556.59a3.1,3.1,0,0,0,2.026.1c-1.05-1.629-2.731-3.7-2.887-5.846.992.215,1.6,1.544,4.251,1.862a6.588,6.588,0,0,0,7.2-4.693c.855-2.718-1.98-6.41-3.874-7.944-2.329-1.887-6.083-5.135-7.68-7.453A6.109,6.109,0,0,0,1670.855,1c-.471.185-1.892,2.356-2.752,3.265-2.671,2.823-7.693,6.839-9.066,8.939a5.99,5.99,0,0,0-1.122,4.7c1.2,4.814,6.564,6.057,10.405,3.8a3.485,3.485,0,0,1,.984-.558C1669.437,22.546,1667.863,24.717,1667.321,25.609Z" transform="translate(-1635.098 -1)" fill="#fefefe" fill-rule="evenodd"/>
        <path id="Caminho_7" data-name="Caminho 7" d="M22.267,1989.537l-.007.143,7.2-.04c2.436-.016,4.9.06,7.278.086,4.8.051,9.637-.012,14.44-.016l29.037.018c1.882.186,4.78.029,6.774.026l6.693-.135c.206-.115.137.306.133-.23,0-.244-.023-.154-.1-.259l-.036.489c-.64-.159-15.123-.126-15.32-.051l1.7-.032c.151-.188.159.288.133-.406l-43.987.013.1.413-14.044-.019Z" transform="translate(-21.892 -1962.004)" fill="#fefefe" fill-rule="evenodd"/>
        <path id="Caminho_8" data-name="Caminho 8" d="M1.351,1973.638c-.23-.071-.2-.118-.123.109-.016.026-.049.035-.048.077s-.03.062-.028.075c.046.276,0,.084.1.208-.083.226-.074.129.184.065.352.337,6.1.141,7.087.135,2.427-.013,4.869-.008,7.278.048,4.8.111,9.739-.011,14.555-.009l25.414.027c.617,0,1.232-.013,1.848-.025.313-.006.617-.006.929-.005.583,0,.6.015.846-.124L30.36,1974.2c-4.8,0-9.642.067-14.44.016-2.377-.025-4.842-.1-7.278-.085l-7.2.04.007-.143-.19.078-.028-.36c.186.036.148.076.123-.109l14.035,0,43.987-.013H72.9c-.624-.352-53.222-.128-62.64-.156-1.3,0-8.374-.208-8.908.172Z" transform="translate(-1.072 -1946.497)" fill="#fefefe" fill-rule="evenodd"/>
        <path id="Caminho_9" data-name="Caminho 9" d="M1241.847,2257.032l-2.829,0c-3.118,0-2.548,3.071-.462,3.071,2.925,0,3.42.417,3.422-.92a2.419,2.419,0,0,0-.138-.906l-2.244-.013c-.718,0-.774-.161-.871.456a2.421,2.421,0,0,0,1.333.152,6.571,6.571,0,0,1,1.33.035l-.009.677a11.147,11.147,0,0,1-2.865-.016c-1.018-.168-1.468-.989-.846-1.73.657-.618,2.78-.187,3.895-.34Z" transform="translate(-1219.895 -2226.249)" fill="#fefefe" fill-rule="evenodd"/>
        <path id="Caminho_10" data-name="Caminho 10" d="M3181.791,2255.76c.817.067,2.014-.21,2.73.149l-.1.686c-.6.131-4.106.509-3.995-1.132.065-.96.975-1.031,1.587-1.033.893,0,1.766,0,2.659.017l.084-.454a29.193,29.193,0,0,0-3.314,0c-2.127.195-2.119,3.091.337,3.073a20.313,20.313,0,0,0,3.165-.077,2.853,2.853,0,0,0-.085-1.606c-.309-.344-2.6-.18-3.045-.132Z" transform="translate(-3136.444 -2223.205)" fill="#fefefe" fill-rule="evenodd"/>
        <path id="Caminho_11" data-name="Caminho 11" d="M2208.033,2255.26l-1.888.081c.246.4-.144.246.388.4.942.27,3.953-.641,4.01.719-1.28.2-3.357-.24-4.4.115-.024.019-.546,1.263.047,1.674.414-.179.154.154.285-.478.1-.495-.243-.68.98-.663a18.958,18.958,0,0,1,2.9.1c.379.577-.118.938.685,1.014a18.078,18.078,0,0,0-.011-1.863.92.92,0,0,0-.92-1.075C2209.553,2255.215,2208.625,2255.263,2208.033,2255.26Z" transform="translate(-2175.741 -2224.489)" fill="#fefefe" fill-rule="evenodd"/>
        <path id="Caminho_12" data-name="Caminho 12" d="M3656.5,2343.472a23.2,23.2,0,0,1,2.361-.018c1.1,0,2.247.24,2.127-.385-.066-.343-.461-.237-1.2-.228-.424.006-.848,0-1.272,0-1.741,0-3.191-.592-2.5,1.839l5.065-.059c-.1-.62-.129-.444-.938-.412l-3.65-.047Z" transform="translate(-3605.897 -2310.83)" fill="#fefefe" fill-rule="evenodd"/>
        <path id="Caminho_13" data-name="Caminho 13" d="M6.75,1990.222l.028.36.19-.079,14.044.02-.1-.413-14.035,0c.025.186.063.146-.123.109Z" transform="translate(-6.593 -1962.971)" fill="#fefefe" fill-rule="evenodd"/>
        <path id="Caminho_14" data-name="Caminho 14" d="M4149.56,1989.619l.036-.489H4136.07c.026.694.018.219-.133.406l-1.7.032C4134.438,1989.493,4148.92,1989.46,4149.56,1989.619Z" transform="translate(-4077.768 -1962.004)" fill="#fefefe" fill-rule="evenodd"/>
        <path id="Caminho_15" data-name="Caminho 15" d="M2706.38,2275.788c.616-.018.518-.02.8-.406a7.236,7.236,0,0,1,.527-.621c.358-.4.6-.732,1.019-1.129.77.369,1.37,1.91,2.456,2.266-.021-.871-2.115-2.826-2.456-2.978C2708.422,2273.064,2706.445,2275.083,2706.38,2275.788Z" transform="translate(-2669.39 -2241.922)" fill="#fefefe" fill-rule="evenodd"/>
        <path id="Caminho_16" data-name="Caminho 16" d="M1742.444,2280.333c-.21.289-.414.5-.645.769-.482.563-.444.21-.579.929.9-.1.629-.406.939-.809.174-.226-.041,0,.227-.195.368-.319.6-.7,1.019-1.062.615.165.871.658,1.274,1.105a6.984,6.984,0,0,1,.517.639c.248.328.254.376.793.333-.2-.869-1.151-1.509-1.8-2.331-.346-.438-.25-.429-.982-.409A6.88,6.88,0,0,0,1742.444,2280.333Z" transform="translate(-1717.398 -2248.211)" fill="#fefefe" fill-rule="evenodd"/>
        <path id="Caminho_17" data-name="Caminho 17" d="M3670.43,2247.785c.162.388,1.913.159,2.263.155.42,0,.85-.007,1.271,0,1.369.035.919.161,1.165-.185l-4.7.026-.112-.349a39.266,39.266,0,0,1,4.913.165c-.171-.371-.295-.255-1.267-.25-.461,0-.924,0-1.386,0-1.373,0-2.118-.271-2.367.249C3670.428,2247.915,3670.271,2247.668,3670.43,2247.785Z" transform="translate(-3620.069 -2216.634)" fill="#fefefe" fill-rule="evenodd"/>
        <path id="Caminho_18" data-name="Caminho 18" d="M3678.2,2258.918l4.7-.026.1-.157a39.17,39.17,0,0,0-4.913-.166Z" transform="translate(-3627.842 -2227.768)" fill="#fefefe" fill-rule="evenodd"/>
        <path id="Caminho_19" data-name="Caminho 19" d="M3135.644,1681.76a38.449,38.449,0,0,1-4.691.117l-.023-2.666.773-.231c-1,.023-.877.062-.872,1.027a10.373,10.373,0,0,0,.04,1.916,18.1,18.1,0,0,0,4.516-.035c.029-.01.062-.026.087-.036Z" transform="translate(-3088.025 -1656.086)" fill="#fefefe" fill-rule="evenodd"/>
        <path id="Caminho_20" data-name="Caminho 20" d="M4711.45,926.235c-.266-.659-.409-.826-.9-1.036l.135.136C4711.421,925.959,4710.886,925.619,4711.45,926.235Z" transform="translate(-4646.215 -912.59)" fill="#7c7c7b" fill-rule="evenodd"/>
      </g>
    </g>
  </g>
</svg>
