<?xml version="1.0" encoding="UTF-8"?>
<!DOCTYPE svg PUBLIC "-//W3C//DTD SVG 1.1//EN" "http://www.w3.org/Graphics/SVG/1.1/DTD/svg11.dtd">
<!-- Creator: CorelDRAW 2020 (64 Bit) -->
<svg xmlns="http://www.w3.org/2000/svg" xml:space="preserve" width="3.38667cm" height="1.77635cm" version="1.1" style="shape-rendering:geometricPrecision; text-rendering:geometricPrecision; image-rendering:optimizeQuality; fill-rule:evenodd; clip-rule:evenodd"
viewBox="0 0 3386.66 1776.34"
 xmlns:xlink="http://www.w3.org/1999/xlink"
 xmlns:xodm="http://www.corel.com/coreldraw/odm/2003">
 <defs>
  <style type="text/css">
   <![CDATA[
    .fil4 {fill:#7C7C7B}
    .fil3 {fill:#FEFEFE}
    .fil2 {fill:#1E1E1E;fill-rule:nonzero}
    .fil0 {fill:url(#id0)}
    .fil1 {fill:url(#id1)}
   ]]>
  </style>
  <linearGradient id="id0" gradientUnits="userSpaceOnUse" x1="513.19" y1="73.56" x2="513.19" y2="1301.97">
   <stop offset="0" style="stop-opacity:0.239216; stop-color:#111111"/>
   <stop offset="0.870588" style="stop-opacity:0.980392; stop-color:#143076"/>
   <stop offset="1" style="stop-opacity:1; stop-color:#15327B"/>
  </linearGradient>
  <linearGradient id="id1" gradientUnits="userSpaceOnUse" xlink:href="#id0" x1="2616.58" y1="-7.88" x2="2616.58" y2="1840.28">
  </linearGradient>
 </defs>
 <g id="Camada_x0020_1">
  <metadata id="CorelCorpID_0Corel-Layer"/>
  <g id="_1657635269584">
   <path id="espada_1" class="fil0" d="M-0 822.88c0,215.41 212.22,287.97 389.24,235.69 34.53,-10.21 56.4,-26.66 83.68,-33.01 -9.17,110.23 -119.99,265.74 -122.83,276.4l350.08 0c-2.99,-36.04 -41.56,-44.04 -79.98,-122.69 -15.45,-31.65 -45.53,-112.11 -49.01,-153.69 26.36,6.12 47.33,19.91 76.1,28.3 328.14,95.74 561.84,-261.35 186.54,-591.87l-305.6 -388.44c-21.68,5.78 -115.81,150.27 -138.64,180.74 -44.95,60.44 -95.01,117.82 -148.46,170.9 -28.11,28.1 -51.63,51.86 -79.86,79.83l-72.84 86.86c-39.39,59.69 -88.42,136.25 -88.42,230.98z"/>
   <path id="espadas_2" class="fil1" d="M1844.42 1119.54c0,324.11 319.3,433.33 585.65,354.62 51.97,-15.36 84.87,-40.12 125.91,-49.7 -9.72,116.82 -95.33,267.44 -146.58,351.89l452.21 0c-22.76,-25.1 -53.44,-57.97 -84.05,-120.66 -23.25,-47.61 -68.52,-168.66 -73.73,-231.23 39.67,9.24 71.2,29.96 114.51,42.6 297.92,86.91 544.01,-74.3 568.32,-325.06l0 -83.29c-13.77,-147.52 -100.19,-317.04 -287.7,-482.17l-453.6 -576.54 -18.37 0c-46.56,40.82 -165.36,222.58 -196.43,264.06 -67.63,90.94 -142.97,177.29 -223.38,257.13 -42.29,42.3 -77.69,78.03 -120.16,120.12l-109.56 130.71c-59.25,89.83 -133.04,204.99 -133.04,347.52z"/>
   <path id="Caminho_1" class="fil2" d="M-0 1776.34l0 -272.02c283.4,-105.9 566.8,-211.79 866.01,-215.34 299.21,-3.55 614.21,95.24 877.78,186.35 263.57,91.11 475.7,174.52 741.3,178.07 265.01,3.55 583.2,-72.44 901.58,-148.59l0 271.53 -3386.66 0z" data-name="Caminho 1"/>
   <g id="_2059580279440">
    <path id="Caminho_3" class="fil3" d="M2269.79 428.96c11.21,4.77 14.48,8.6 20.54,23.62 2.9,72.72 -71.85,60.44 -140.11,60.44 -65.94,0 -138,-2.72 -203.19,0.37 -6.49,20.72 -7.57,37.31 -17.38,55.28 -12.7,23.26 -15.84,29.21 -31.56,45.29 -15.73,16.07 -62.64,50.69 -99.4,49.54l-17.63 5.26 0.52 60.8c10.34,0.36 21.25,0.57 31.74,0.57 25.03,0 50.28,-1.07 75.21,-3.2 18.08,-8.1 24.29,-15.53 25.34,-39.84 3.47,-79.55 -41.36,-64.68 157.26,-65.04 96.68,-0.16 65,-8.94 115.74,41.41l38.8 40.16c12.52,13.52 23.68,25.98 50.86,26.85 23.22,0.74 141.79,3.05 156.26,-0.68 -29.02,-37.58 -113.01,-103.2 -121.18,-121.44 11.49,-6.52 33.89,-10.79 48.33,-17.12 105.52,-46.29 138.68,-201.46 -25.76,-264.9 -70.92,-27.36 -161.01,-20.5 -244.6,-20.5 -39.25,0 -248.08,-2.5 -267.65,0.43 2.1,9.65 25.6,25.8 35.02,33.71 30.55,25.65 53.82,71.07 67.59,74.53 9.6,2.41 58.9,0.14 72.85,0.17 47.44,0.07 94.89,0.09 142.32,0.07 42.15,0.07 99,-7.48 130.08,14.22z" data-name="Caminho 3"/>
    <path id="Caminho_4" class="fil3" d="M1252.78 512.97c-51.44,-5.22 -290.59,7.35 -314.19,-2.28 -9.86,-7.33 4.31,-51.68 -6.23,-62.63 -8.06,-8.41 -124.98,-2.73 -126.03,-1.9 -1.39,1.91 -2.22,4.2 -2.37,6.57 -0.5,2.46 -0.77,4.97 -0.8,7.48 -0.23,5.45 0.35,12.88 0.43,18.59 0.59,40.72 -3.97,243.56 2.72,250.63 5.11,5.41 90.75,5.65 110.89,-5.99 37.44,-21.62 4.87,-77.55 21.79,-99.1 6.67,-6.04 133.81,-2.83 152.19,-2.97 89.95,-0.69 70.24,-9.39 117.29,40.46 75.57,80.05 55.68,69.29 167.23,69.12 23.47,-0.03 57.09,2.45 78.94,0.45 -2.18,-12.44 -59.91,-62.49 -72.63,-74.52 -88.5,-83.57 -61.27,-141.6 -129.22,-143.93l-0.01 0.02z" data-name="Caminho 4"/>
    <path id="Caminho_5" class="fil3" d="M1267.29 417.36c18.2,3.49 21.02,12.04 37.09,15.3 5.7,-7.43 74.66,-94.97 75.34,-97.85 -82.1,-39.75 -221.07,-29.95 -328.06,-29.95 -59.7,0 -119.44,0.13 -179.15,-0.08 -30.11,-0.1 -55.52,4.25 -65.07,24.69 -5.67,12.14 -5.21,70.74 -2.08,84.73 13.22,4.45 291.63,1.41 346.41,1.51 35.91,0.07 83.06,2.99 115.52,1.64l0 0.01z" data-name="Caminho 5"/>
    <path id="Caminho_6" class="fil3" d="M1537.46 702.62c-8.4,16.44 -16.25,13.13 -19.53,29.14l26.87 -0.95c14.33,-4.62 7.66,-19.02 17.65,-36.3 20.52,-35.47 47.83,-82.2 44.36,-127.95 -14.07,0.11 -46.88,33.9 -83.9,45.91 -125.76,40.8 -231.77,-72.32 -165.44,-175.4 49.47,-76.93 139.8,-128.13 200.16,-197.86 13.52,-15.66 49.35,-65.71 60.46,-73.27 9.72,7.55 19.98,24.4 29.07,36.09 69.02,89.05 183.13,159.15 231.08,232.61 40.96,62.77 23.73,132.87 -46.9,173.02 -27.3,15.53 -77.8,17.25 -110.2,5.76 -48.79,-17.3 -59.5,-48.28 -88.06,-48.71 -1.09,49.24 20.7,88.23 38.12,123.16 0.47,0.54 1.21,0.62 1.43,1.59 1.36,5.95 8.34,3.03 13.27,23.51 -8.3,2.14 -10.46,1.08 -12.69,13.46 10.03,7.59 36.86,5.06 46.2,2.23 -23.95,-37.16 -62.28,-84.36 -65.84,-133.33 22.63,4.9 36.47,35.22 96.96,42.47 76.36,9.15 141.68,-35.69 164.12,-107.04 19.49,-61.95 -45.16,-146.18 -88.34,-181.16 -53.1,-43.03 -138.71,-117.09 -175.13,-169.96 -6.89,-10 -22.75,-33.74 -33.07,-38.28 -10.74,4.22 -43.14,53.74 -62.75,74.47 -60.91,64.37 -175.45,155.97 -206.77,203.86 -17.27,26.4 -36.17,64.79 -25.59,107.11 27.46,109.78 149.7,138.14 237.29,86.76 8.5,-4.98 14.22,-11.11 22.47,-12.71 2.97,31.91 -32.92,81.42 -45.3,101.77z" data-name="Caminho 6"/>
    <path id="Caminho_7" class="fil3" d="M811.15 769.29l-0.15 3.26 164.26 -0.91c55.55,-0.36 111.76,1.36 165.97,1.95 109.41,1.17 219.77,-0.27 329.31,-0.36l662.2 0.41c42.93,4.25 109.02,0.68 154.48,0.6l152.64 -3.08c4.69,-2.62 3.12,6.99 3.03,-5.25 -0.04,-5.58 -0.51,-3.53 -2.21,-5.9l-0.82 11.15c-14.6,-3.62 -344.89,-2.87 -349.38,-1.16l38.68 -0.72c3.45,-4.29 3.63,6.56 3.05,-9.27l-1003.15 0.31 2.39 9.41 -320.3 -0.45 0 0.01z" data-name="Caminho 7"/>
    <path id="Caminho_8" class="fil3" d="M808.98 760.38c-5.26,-1.62 -4.56,-2.73 -2.82,2.49 -0.35,0.59 -1.11,0.8 -1.1,1.75 0,0.85 -0.68,1.42 -0.64,1.72 1.05,6.3 0,1.93 2.38,4.77 -1.88,5.14 -1.69,2.94 4.19,1.47 8.02,7.68 139.08,3.22 161.63,3.09 55.34,-0.3 111.03,-0.17 165.97,1.1 109.43,2.53 222.1,-0.25 331.94,-0.2l579.58 0.62c14.07,-0.05 28.09,-0.29 42.16,-0.57 7.14,-0.14 14.06,-0.14 21.18,-0.12 13.29,0 13.61,0.34 19.29,-2.82l-662.17 -0.44c-109.54,0.08 -219.9,1.53 -329.31,0.36 -54.22,-0.58 -110.43,-2.32 -165.97,-1.95l-164.26 0.91 0.14 -3.27 -4.33 1.8 -0.64 -8.22c4.24,0.84 3.4,1.74 2.81,-2.49l320.07 -0.05 1003.15 -0.31 308.46 0c-14.23,-8.03 -1213.76,-2.91 -1428.55,-3.56 -29.68,-0.09 -190.96,-4.77 -203.16,3.92l0 0z" data-name="Caminho 8"/>
    <path id="Caminho_9" class="fil3" d="M1303.22 843.42l-64.52 -0.05c-71.1,0 -58.11,70.03 -10.53,70.04 66.71,0 77.99,9.53 78.04,-20.99 0.03,-0.7 0.05,-1.43 0.05,-2.14 0,-6.3 -1.09,-12.57 -3.2,-18.5l-51.18 -0.3c-16.38,0.07 -17.66,-3.67 -19.86,10.41 8.13,5.35 20.22,3.67 30.4,3.45 3.72,-0.27 7.48,-0.42 11.21,-0.42 6.38,0 12.8,0.42 19.12,1.23l-0.2 15.44c-13.68,3.4 -51.97,1.84 -65.36,-0.36 -23.21,-3.83 -33.48,-22.54 -19.29,-39.49 14.98,-14.1 63.41,-4.27 88.83,-7.76l6.49 -10.56z" data-name="Caminho 9"/>
    <path id="Caminho_10" class="fil3" d="M1836.76 883.84c18.64,1.54 45.93,-4.77 62.26,3.4l-2.19 15.66c-13.69,2.99 -93.62,11.61 -91.09,-25.83 1.48,-21.9 22.22,-23.5 36.2,-23.56 20.36,-0.08 40.28,0.06 60.63,0.39l1.94 -10.35c-12.62,-0.61 -25.53,-1.1 -38.21,-1.1 -12.42,0 -25.02,0.41 -37.36,1.06 -48.52,4.43 -48.34,70.47 7.7,70.12 16.83,-0.12 58.6,2.04 72.16,-1.74 1.62,-10.22 3.25,-30.22 -1.93,-36.62 -7.05,-7.85 -59.27,-4.09 -69.44,-3.01l-0.67 11.58z" data-name="Caminho 10"/>
    <path id="Caminho_11" class="fil3" d="M1539.03 843.18l-43.06 1.85c5.6,9.16 -3.27,5.61 8.86,9.08 21.48,6.13 90.13,-14.61 91.43,16.4 -29.18,4.63 -76.55,-5.49 -100.43,2.61 -0.53,0.44 -12.44,28.81 1.07,38.17 9.44,-4.08 3.5,3.51 6.5,-10.89 2.35,-11.28 -5.53,-15.51 22.35,-15.13 12.52,0.17 61.81,-1.03 66.17,2.23 8.65,13.16 -2.69,21.4 15.61,23.15 2.64,-16.34 -1.42,-25.53 -0.25,-42.5 1.08,-15.61 -7.55,-22.98 -20.98,-24.51 -12.61,-1.52 -33.78,-0.46 -47.27,-0.46z" data-name="Caminho 11"/>
    <path id="Caminho_12" class="fil3" d="M1956.73 885.8c10.23,-0.58 20.59,-0.9 30.89,-0.9 7.64,0 15.41,0.19 22.98,0.52 25.04,-0.06 51.24,5.44 48.5,-8.79 -1.5,-7.82 -10.5,-5.41 -27.4,-5.18 -9.66,0.13 -19.34,0.08 -29,0.08 -39.7,0 -72.78,-13.5 -57.11,41.94l115.5 -1.37c-2.29,-14.13 -2.93,-10.13 -21.39,-9.38l-83.23 -1.06 0.26 -15.86z" data-name="Caminho 12"/>
    <path id="Caminho_13" class="fil3" d="M806.17 762.87l0.64 8.21 4.34 -1.79 320.29 0.45 -2.39 -9.42 -320.06 0.06c0.56,4.23 1.43,3.33 -2.82,2.49z" data-name="Caminho 13"/>
    <path id="Caminho_14" class="fil3" d="M2439.85 771.17l0.83 -11.15 -308.49 0c0.59,15.83 0.41,4.98 -3.04,9.27l-38.68 0.72c4.49,-1.71 334.78,-2.46 349.38,1.16z" data-name="Caminho 14"/>
    <path id="Caminho_15" class="fil3" d="M1646.18 913.71c14.06,-0.4 11.83,-0.46 18.3,-9.26 3.74,-4.93 7.77,-9.68 12.03,-14.16 8.17,-9.1 13.65,-16.7 23.24,-25.74 17.55,8.41 31.24,43.57 56.01,51.69 -0.49,-19.86 -48.22,-64.45 -56.01,-67.92 -7,3.26 -52.07,49.32 -53.57,65.39z" data-name="Caminho 15"/>
    <path id="Caminho_16" class="fil3" d="M1373.8 873.96c-4.77,6.58 -9.45,11.37 -14.72,17.54 -11,12.84 -10.12,4.76 -13.21,21.19 20.51,-2.25 14.34,-9.27 21.42,-18.44 3.97,-5.16 -0.94,-0.09 5.18,-4.44 8.4,-7.28 13.79,-15.94 23.24,-24.22 14.03,3.75 19.86,15.02 29.05,25.19 4.2,4.61 8.16,9.49 11.78,14.56 5.65,7.49 5.8,8.59 18.08,7.6 -4.47,-19.83 -26.25,-34.41 -41.08,-53.16 -7.9,-10 -5.7,-9.79 -22.38,-9.32 -6.51,7.27 -12.34,15.16 -17.37,23.5l0.01 0z" data-name="Caminho 16"/>
    <path id="Caminho_17" class="fil3" d="M1951.09 851.8c3.69,8.85 43.63,3.62 51.61,3.53 9.59,-0.1 19.38,-0.16 28.98,0.09 31.22,0.81 20.96,3.67 26.55,-4.22l-107.14 0.59 -2.56 -7.95c24.59,0.99 94.18,-1.68 112.03,3.77 -3.91,-8.47 -6.72,-5.83 -28.89,-5.69 -10.53,0.07 -21.11,0.05 -31.62,0.03 -31.31,-0.04 -48.29,-6.17 -53.98,5.67 4.98,7.13 1.4,1.51 5.02,4.18z" data-name="Caminho 17"/>
    <path id="Caminho_18" class="fil3" d="M1951.09 851.8l107.15 -0.58 2.32 -3.6c-17.85,-5.44 -87.43,-2.78 -112.03,-3.77l2.56 7.95z" data-name="Caminho 18"/>
    <path id="Caminho_19" class="fil3" d="M1888.56 726.91c-24.95,2.16 -50.21,3.23 -75.25,3.23 -10.49,0 -21.3,-0.21 -31.69,-0.53l-0.52 -60.8 17.64 -5.27c-22.72,0.53 -20.01,1.42 -19.87,23.42 0.07,12.75 -1.84,32.16 0.91,43.7 11.06,3.08 86.98,4.77 102.98,-0.8 0.68,-0.22 1.41,-0.59 1.98,-0.82l3.82 -2.13z" data-name="Caminho 19"/>
    <path id="Caminho_20" class="fil4" d="M2290.32 452.58c-6.06,-15.02 -9.33,-18.83 -20.54,-23.62l3.1 3.1c16.79,14.22 4.59,6.43 17.44,20.52z" data-name="Caminho 20"/>
   </g>
  </g>
 </g>
</svg>
