<svg xmlns="http://www.w3.org/2000/svg" width="241.747" height="113.816" viewBox="0 0 241.747 113.816">
  <g id="Grupo_140" data-name="Grupo 140" transform="translate(555.747 382.555)">
    <g id="Camada_x0020_1" transform="translate(-551.015 -383.555)">
      <g id="_2059580279440" transform="translate(-4.732 1)">
        <path id="Caminho_3" data-name="Caminho 3" d="M3211.65,544.627c1.646.7,2.126,1.263,3.016,3.469.427,10.682-10.553,8.879-20.579,8.879-9.686,0-20.272-.4-29.847.054-.954,3.043-1.112,5.481-2.553,8.12-1.865,3.417-2.326,4.29-4.636,6.652s-9.2,7.446-14.6,7.278l-2.59.772.077,8.931a128.721,128.721,0,0,0,15.714-.391c2.656-1.189,3.568-2.28,3.723-5.852.51-11.684-6.075-9.5,23.1-9.553,14.2-.023,9.547-1.313,17,6.082l5.7,5.9c1.838,1.986,3.478,3.816,7.471,3.944,3.41.109,20.827.447,22.952-.1-4.263-5.52-16.6-15.158-17.8-17.838,1.688-.958,4.978-1.585,7.1-2.515,15.5-6.8,20.37-29.592-3.785-38.911-10.417-4.019-23.65-3.011-35.929-3.011-5.764,0-36.44-.367-39.314.064.308,1.416,3.76,3.789,5.144,4.951,4.488,3.768,7.906,10.439,9.929,10.947,1.41.355,8.651.021,10.7.025q10.448.019,20.9.014C3198.734,542.549,3207.084,541.439,3211.65,544.627Z" transform="translate(-2996.135 -502.386)" fill="#fefefe" fill-rule="evenodd"/>
        <path id="Caminho_4" data-name="Caminho 4" d="M61.395,982.085c-7.557-.766-42.685,1.08-46.151-.335-1.449-1.077.633-7.591-.915-9.2-1.184-1.234-18.358-.4-18.513-.279a1.841,1.841,0,0,0-.349.965,6,6,0,0,0-.117,1.1c-.034.8.051,1.892.063,2.73.087,5.981-.584,35.777.4,36.815.75.794,13.329.83,16.288-.879,5.5-3.176.716-11.392,3.2-14.558.98-.886,19.655-.415,22.356-.436,13.213-.1,10.317-1.379,17.228,5.944,11.1,11.758,8.179,10.178,24.565,10.153,3.446-.005,8.385.359,11.594.065-.32-1.827-8.8-9.178-10.668-10.945-13-12.276-9-20.8-18.981-21.142Z" transform="translate(4.732 -927.504)" fill="#fefefe" fill-rule="evenodd"/>
        <path id="Caminho_5" data-name="Caminho 5" d="M64.97,539.644c2.674.512,3.088,1.769,5.449,2.247.837-1.09,10.967-13.95,11.066-14.372-12.059-5.839-32.473-4.4-48.188-4.4-8.77,0-17.545.02-26.315-.011-4.423-.015-8.155.624-9.558,3.627-.833,1.783-.765,10.391-.306,12.445,1.942.654,42.838.208,50.884.223,5.274.01,12.2.439,16.969.24Z" transform="translate(3.287 -499.107)" fill="#fefefe" fill-rule="evenodd"/>
        <path id="Caminho_6" data-name="Caminho 6" d="M1689.738,83.438c-1.234,2.415-2.388,1.93-2.869,4.281l3.947-.139c2.105-.68,1.125-2.794,2.593-5.332,3.013-5.21,7.025-12.074,6.516-18.795-2.067.016-6.887,4.979-12.325,6.743-18.473,5.994-34.044-10.622-24.3-25.764,7.266-11.3,20.535-18.821,29.4-29.063,1.987-2.3,7.249-9.652,8.882-10.762,1.427,1.108,2.934,3.583,4.269,5.3,10.139,13.08,26.9,23.378,33.944,34.168,6.016,9.22,3.485,19.518-6.89,25.415-4.01,2.28-11.428,2.533-16.187.845-7.166-2.541-8.74-7.091-12.935-7.154-.16,7.233,3.041,12.959,5.6,18.09.068.08.177.091.209.234.2.874,1.226.445,1.95,3.453-1.219.314-1.536.159-1.864,1.977,1.474,1.115,5.414.743,6.787.328-3.518-5.459-9.149-12.392-9.672-19.584,3.325.719,5.357,5.173,14.242,6.237,11.217,1.344,20.812-5.241,24.108-15.722,2.863-9.1-6.634-21.472-12.976-26.61-7.8-6.321-20.375-17.2-25.725-24.965-1.012-1.469-3.341-4.957-4.858-5.623-1.577.619-6.337,7.893-9.217,10.938-8.947,9.456-25.772,22.911-30.371,29.945-2.537,3.879-5.314,9.517-3.759,15.733,4.033,16.126,21.989,20.291,34.855,12.745,1.248-.732,2.088-1.632,3.3-1.868C1696.828,73.177,1691.556,80.449,1689.738,83.438Z" transform="translate(-1581.795 -1)" fill="#fefefe" fill-rule="evenodd"/>
        <path id="Caminho_7" data-name="Caminho 7" d="M22.282,1990.492l-.022.48,24.128-.134c8.159-.053,16.416.2,24.379.287,16.071.172,32.282-.041,48.372-.054l97.269.061c6.306.624,16.013.1,22.692.088l22.42-.452c.689-.386.458,1.026.445-.772-.006-.819-.075-.518-.324-.866l-.121,1.638c-2.144-.532-50.66-.422-51.32-.17l5.682-.107c.507-.629.533.964.447-1.361l-147.351.045.351,1.382-47.047-.065Z" transform="translate(-21.026 -1898.261)" fill="#fefefe" fill-rule="evenodd"/>
        <path id="Caminho_8" data-name="Caminho 8" d="M1.82,1974.18c-.772-.237-.67-.4-.413.366-.052.087-.164.118-.162.258,0,.124-.1.208-.094.252.154.926,0,.283.35.7-.277.756-.249.433.615.217,1.179,1.127,20.43.472,23.741.454,8.129-.045,16.309-.026,24.379.161,16.074.372,32.624-.037,48.759-.029l85.134.091c2.066-.008,4.126-.043,6.192-.084,1.049-.021,2.065-.02,3.111-.017,1.953,0,2,.049,2.833-.415L99,1976.069c-16.09.012-32.3.226-48.372.053-7.964-.085-16.22-.34-24.379-.286l-24.128.134.022-.48-.637.263-.094-1.206c.623.122.5.255.413-.366l47.014-.008,147.351-.045H241.5c-2.09-1.18-178.288-.427-209.837-.523-4.36-.013-28.05-.7-29.842.576Z" transform="translate(-0.883 -1883.258)" fill="#fefefe" fill-rule="evenodd"/>
        <path id="Caminho_9" data-name="Caminho 9" d="M1253.624,2257.038l-9.477-.008c-10.445,0-8.536,10.287-1.548,10.288,9.8,0,11.456,1.4,11.464-3.083a8.092,8.092,0,0,0-.464-3.033l-7.518-.043c-2.406.01-2.593-.539-2.917,1.528,1.194.786,2.97.54,4.466.508a22.051,22.051,0,0,1,4.456.118l-.03,2.268c-2.009.5-7.634.27-9.6-.053-3.409-.562-4.917-3.311-2.833-5.8,2.2-2.071,9.313-.628,13.048-1.14Z" transform="translate(-1180.088 -2153.917)" fill="#fefefe" fill-rule="evenodd"/>
        <path id="Caminho_10" data-name="Caminho 10" d="M3186.247,2260.029c2.737.226,6.746-.7,9.145.5l-.321,2.3c-2.011.439-13.753,1.706-13.381-3.793.218-3.217,3.264-3.452,5.317-3.461,2.991-.013,5.917.008,8.907.057l.284-1.521a97.738,97.738,0,0,0-11.1-.007c-7.127.652-7.1,10.352,1.131,10.3,2.472-.017,8.608.3,10.6-.256.238-1.5.477-4.438-.284-5.379-1.035-1.152-8.706-.6-10.2-.441Z" transform="translate(-3034.339 -2150.972)" fill="#fefefe" fill-rule="evenodd"/>
        <path id="Caminho_11" data-name="Caminho 11" d="M2213.039,2255.3l-6.325.271c.822,1.345-.481.824,1.3,1.334,3.156.9,13.24-2.147,13.431,2.408-4.287.681-11.244-.805-14.752.384-.078.065-1.828,4.231.156,5.607,1.388-.6.515.516.955-1.6.345-1.657-.812-2.278,3.283-2.222,1.839.025,9.08-.151,9.72.327,1.27,1.934-.395,3.143,2.293,3.4.387-2.4-.209-3.749-.037-6.242.158-2.293-1.109-3.375-3.081-3.6C2218.13,2255.144,2215.02,2255.3,2213.039,2255.3Z" transform="translate(-2104.865 -2152.214)" fill="#fefefe" fill-rule="evenodd"/>
        <path id="Caminho_12" data-name="Caminho 12" d="M3658.063,2345.094a77.91,77.91,0,0,1,7.912-.059c3.678-.008,7.526.8,7.124-1.29-.22-1.149-1.543-.795-4.025-.762-1.419.019-2.841.012-4.26.012-5.832,0-10.69-1.983-8.389,6.16l16.966-.2c-.337-2.077-.43-1.488-3.142-1.378l-12.226-.156Z" transform="translate(-3488.533 -2235.749)" fill="#fefefe" fill-rule="evenodd"/>
        <path id="Caminho_13" data-name="Caminho 13" d="M6.75,1990.485l.094,1.206.637-.263,47.047.066-.351-1.383-47.014.008c.083.622.21.489-.413.366Z" transform="translate(-6.225 -1899.197)" fill="#fefefe" fill-rule="evenodd"/>
        <path id="Caminho_14" data-name="Caminho 14" d="M4185.56,1990.769l.122-1.638h-45.313c.087,2.325.061.732-.446,1.361l-5.682.107C4134.9,1990.347,4183.416,1990.237,4185.56,1990.769Z" transform="translate(-3945.066 -1898.261)" fill="#fefefe" fill-rule="evenodd"/>
        <path id="Caminho_15" data-name="Caminho 15" d="M2706.38,2282.526c2.065-.059,1.737-.067,2.688-1.36a24.256,24.256,0,0,1,1.764-2.081c1.2-1.337,2.006-2.453,3.414-3.781,2.578,1.236,4.589,6.4,8.228,7.593-.072-2.918-7.084-9.467-8.228-9.977C2713.22,2273.4,2706.6,2280.166,2706.38,2282.526Z" transform="translate(-2582.467 -2169.081)" fill="#fefefe" fill-rule="evenodd"/>
        <path id="Caminho_16" data-name="Caminho 16" d="M1745.322,2282.771c-.7.966-1.387,1.671-2.162,2.576-1.615,1.886-1.487.7-1.94,3.113,3.013-.33,2.106-1.361,3.146-2.708.584-.758-.138-.013.761-.652,1.234-1.07,2.026-2.342,3.414-3.558,2.061.551,2.917,2.206,4.267,3.7a23.383,23.383,0,0,1,1.73,2.14c.83,1.1.852,1.261,2.656,1.116-.656-2.913-3.856-5.055-6.034-7.809-1.16-1.468-.837-1.438-3.288-1.369A23.006,23.006,0,0,0,1745.322,2282.771Z" transform="translate(-1661.42 -2175.165)" fill="#fefefe" fill-rule="evenodd"/>
        <path id="Caminho_17" data-name="Caminho 17" d="M3670.946,2248.966c.542,1.3,6.408.532,7.58.519,1.409-.014,2.847-.023,4.257.013,4.586.119,3.08.54,3.9-.619l-15.738.086-.376-1.168c3.613.146,13.835-.246,16.457.554-.575-1.244-.988-.856-4.244-.836-1.546.01-3.1.007-4.644.005-4.6-.006-7.094-.907-7.929.833C3670.939,2249.4,3670.413,2248.574,3670.946,2248.966Z" transform="translate(-3502.244 -2144.615)" fill="#fefefe" fill-rule="evenodd"/>
        <path id="Caminho_18" data-name="Caminho 18" d="M3678.466,2259.738l15.738-.086.342-.528c-2.622-.8-12.843-.408-16.457-.554Z" transform="translate(-3509.764 -2155.386)" fill="#fefefe" fill-rule="evenodd"/>
        <path id="Caminho_19" data-name="Caminho 19" d="M3147.011,1688.293a128.781,128.781,0,0,1-15.714.391l-.077-8.931,2.591-.773c-3.336.078-2.939.208-2.919,3.439.011,1.873-.27,4.725.134,6.42,1.625.452,12.776.7,15.127-.118.1-.033.206-.086.291-.121Z" transform="translate(-2987.494 -1602.287)" fill="#fefefe" fill-rule="evenodd"/>
        <path id="Caminho_20" data-name="Caminho 20" d="M4713.565,928.669c-.89-2.206-1.37-2.766-3.016-3.469l.454.455C4713.47,927.744,4711.677,926.6,4713.565,928.669Z" transform="translate(-4495.035 -882.959)" fill="#7c7c7b" fill-rule="evenodd"/>
      </g>
    </g>
  </g>
</svg>
