<svg xmlns="http://www.w3.org/2000/svg" width="46.344" height="23.822" viewBox="0 0 46.344 23.822">
  <g id="Grupo_4" data-name="Grupo 4" transform="translate(-620 -1144)">
    <g id="Camada_x0020_1" transform="translate(620 1144)">
      <g id="_2328805602512" transform="translate(0 0)">
        <path id="Caminho_41" data-name="Caminho 41" d="M5586.356,17.936c0-1.03-.146-1.539.271-1.539h7.151c.439,0,.271.659.271,1.81h-7.423c-.208,0-.271-.063-.271-.272Zm10.41-5.7c0-.807,1.712-1.3,2.5-1.661.769-.354,2.476-.971,2.476.575,0,1.289-.483,1.381-2.26,1.451C5598.718,12.628,5596.766,13.07,5596.766,12.234Zm-18.1-.815a1.268,1.268,0,0,1,1.176-1.358c.444,0,3.8,1.539,3.8,1.9l-.09.634C5582.377,12.869,5578.663,12.926,5578.663,11.419Zm22.085-2.9a1.313,1.313,0,0,1-.453.091h-20.275a.348.348,0,0,1-.362-.362c0-.4,2.641-5.042,3.036-5.745.681-1.211,1.567-1.056,3.389-1.046l8.6,0c2.082.014,2.432-.136,3.166,1.27C5598.287,3.56,5601.033,7.886,5600.748,8.523Zm-21-2.806c-3.065,0-3.168-.3-3.168,1.177a1.158,1.158,0,0,0,.272.815l1.719.108a9.62,9.62,0,0,0-1.81,4.689v4.888a2.228,2.228,0,0,0,2.263,2.263h22.357a2.235,2.235,0,0,0,2.263-2.082v-5.34c0-2.146-1.414-3.121-1.72-4.435l1.722-.041c.128-.651.179-.014.179-1.226,0-1.776-2.674-.1-3.3-1.138-.548-.917-1.046-1.932-1.558-2.877-1.5-2.763-2.767-2.142-6.821-2.14a71.921,71.921,0,0,0-8.665.115c-1.182.19-1.67,1.3-2.167,2.269a28.984,28.984,0,0,0-1.569,2.957Z" transform="translate(-5557.482 -0.3)" fill="#fff" fill-rule="evenodd"/>
        <path id="Caminho_42" data-name="Caminho 42" d="M892.81,2334.116c0,1.98,3.137,2.74,4.254,3.711-6.089,1.418-3.975,4.4-2.211,3.862.822-.25,1.717-.677,2.535-1,1.208-.483,4.293-1.191,4.293-2.676,0-1.148-1.018-1.34-1.72-1.811-.381.256-.327.362-1,.362-.824,0-1-.673-1-1.539v-1.177h-.453c1.071-1.6-.479-4.036,1.031-4.682,1.847-.789,1.594,2.409,1.594,3.867l1.321-1.039C901.629,2322.887,892.81,2331.351,892.81,2334.116Z" transform="translate(-889.733 -2319.92)" fill="#fff" fill-rule="evenodd"/>
        <path id="Caminho_43" data-name="Caminho 43" d="M2407.135,2755.2c.531,0,3.007-2.23,3.637-2.79,1.138-1.013.571-.288,1.341-.288,1.638,0,1.053-2.263-1-2.263-.273,0-2.61,2.131-3.077,2.444,0-1.64.337-4.164-1.086-4.164-1.214,0-.869,2.528-.754,3.56C2406.342,2752.967,2405.766,2755.2,2407.135,2755.2Z" transform="translate(-2397.812 -2738.741)" fill="#fff" fill-rule="evenodd"/>
        <path id="Caminho_44" data-name="Caminho 44" d="M8.578,3121.959l-2.428-.258c-.09.373.556,1.469.743,1.871l1.594.2a16.6,16.6,0,0,0,.647,3.875c.288.739,1.707,2.674,1.707,3.09,0,.839-9.155.724-10.59.724l.67-.39c-.716-.783-5.524-.606-7.187-.606a5.05,5.05,0,0,0-.634.09v.272l7.224.22-1.16.5c.61.408,8.908.128,10.484-.016,3.326-.3.111-2.232-.442-4.687-.1-.451-.107-2.021.277-2.177v-.905c.576-.134.634-.4.634-.905,0-.941-.949-.154-.349-2.249.3-1.04.34-2-.737-2-.72,0-.63.993-.534,1.445A7.031,7.031,0,0,1,8.578,3121.959Z" transform="translate(6.9 -3107.944)" fill="#fff" fill-rule="evenodd"/>
        <path id="Caminho_45" data-name="Caminho 45" d="M3142.08,1215.794a2.561,2.561,0,0,0,2.534,2.534c3.292,0,3.251-4.978.091-4.978A2.507,2.507,0,0,0,3142.08,1215.794Z" transform="translate(-3131.309 -1209.201)" fill="#fff" fill-rule="evenodd"/>
        <path id="Caminho_46" data-name="Caminho 46" d="M3026.1,4126.211c1.016.56,1.755.747,1.755,2.032,0,1.224-.554-.039.375,2.25.388.955.546,1.461,1.707,1.461a1.42,1.42,0,0,0,1.217-1.58,43.573,43.573,0,0,0-2.664-6.2Z" transform="translate(-3015.726 -4110.064)" fill="#fff" fill-rule="evenodd"/>
        <path id="Caminho_47" data-name="Caminho 47" d="M5768.566,5688.417a13.794,13.794,0,0,0,2.807-.09,11.25,11.25,0,0,0,.09-2.444h-1.9c-.847,0-.956-.316-1.538-.452C5768.024,5686.3,5767.668,5688.417,5768.566,5688.417Z" transform="translate(-5748.202 -5665.984)" fill="#fff" fill-rule="evenodd"/>
        <path id="Caminho_48" data-name="Caminho 48" d="M12340.27,5685.883h-1.811c0,1.267-.226,2.534.362,2.534,3.629,0,2.987.556,2.987-2.987C12341.226,5685.567,12341.116,5685.883,12340.27,5685.883Z" transform="translate(-12296.188 -5665.985)" fill="#fff" fill-rule="evenodd"/>
        <path id="Caminho_49" data-name="Caminho 49" d="M4942.485,2802.337c-.4.191-.439-.041-.453.543h-.542v.814h.452v.452l.452.094c0,.55-.226,1.354.272,1.354s.364-1.856.361-2.264c0-.467.359-2.262-.18-2.262C4942.334,2801.07,4942.485,2801.839,4942.485,2802.337Z" transform="translate(-4924.564 -2791.49)" fill="#fff" fill-rule="evenodd"/>
        <path id="Caminho_50" data-name="Caminho 50" d="M4941.49,2423.538c.672-.18-.164-.815,1.358-.815C4942.659,2422.015,4941.509,2422.673,4941.49,2423.538Z" transform="translate(-4924.564 -2414.138)" fill="#fff" fill-rule="evenodd"/>
        <path id="Caminho_51" data-name="Caminho 51" d="M5073.8,2575.745h.181c.107-.461.25-.543.814-.543v-.181C5074.2,2574.882,5073.816,2575.012,5073.8,2575.745Z" transform="translate(-5056.421 -2566.165)" fill="#fff" fill-rule="evenodd"/>
      </g>
    </g>
  </g>
</svg>
