<svg xmlns="http://www.w3.org/2000/svg" width="41.362" height="77" viewBox="0 0 41.362 77">
  <g id="Grupo_27" data-name="Grupo 27" transform="translate(-356 -699)">
    <text id="Muito_boa" data-name="Muito
boa" transform="translate(377 756)" fill="#fff" font-size="10" font-family="Poppins-Regular, Poppins"><tspan x="-13.755" y="0">Muito</tspan><tspan x="-9.96" y="16">boa</tspan></text>
    <g id="_3338077-emoji-emoticon-smiley-struck-super_106810_1_" data-name="3338077-emoji-emoticon-smiley-struck-super_106810 (1)" transform="translate(338.296 698)">
      <ellipse id="Elipse_42" data-name="Elipse 42" cx="19.681" cy="17.85" rx="19.681" ry="17.85" transform="translate(18.704 2)" fill="#ffe585"/>
      <path id="Caminho_89" data-name="Caminho 89" d="M42.865,5.947c-.184,0-.368,0-.551.007,9.783.253,17.628,7.521,17.628,16.451,0,9.09-8.128,16.458-18.155,16.458S23.632,31.495,23.632,22.405a15.039,15.039,0,0,1,.581-4.145,16.223,16.223,0,0,0-.94,5.448c0,9.81,8.773,17.762,19.593,17.762s19.593-7.952,19.593-17.762S53.686,5.947,42.865,5.947Z" transform="translate(-3.754 -3.244)" fill="#f90" opacity="0.24"/>
      <path id="Caminho_95" data-name="Caminho 95" d="M8.548,0" transform="translate(34.394 42)" fill="none" stroke="#6e6e96" stroke-linecap="round" stroke-width="2" opacity="0.29"/>
      <path id="Caminho_90" data-name="Caminho 90" d="M20.681,20.951c0-9.3,8.329-16.837,18.6-16.837,10.052,0,18.241,7.215,18.591,16.234.008-.205.013-.411.013-.618C57.89,9.939,49.118,2,38.3,2S18.7,9.939,18.7,19.731c0,8.152,6.079,15.018,14.358,17.09C25.848,34.5,20.681,28.275,20.681,20.951Z" fill="#ffefb5"/>
      <g id="Grupo_20" data-name="Grupo 20" transform="translate(25.939 19.13)">
        <path id="Caminho_91" data-name="Caminho 91" d="M58.512,110.208c-.18,6.25,1.993,11.739,7.226,13.213s11.913-1.522,15.022-6.947Z" transform="translate(-58.501 -110.208)" fill="#c7a17b" stroke="#000" stroke-linecap="round" stroke-linejoin="round" stroke-width="2"/>
      </g>
      <g id="Grupo_21" data-name="Grupo 21" transform="translate(29.303 7.38)">
        <path id="Caminho_92" data-name="Caminho 92" d="M80.971,39.99a5.675,5.675,0,0,1,3.042-1.96h0c1.056-.2,1.305-1,.555-1.771l0,0a6.41,6.41,0,0,1-1.557-3.166c-.11-.973-.729-1.167-1.376-.431a6.375,6.375,0,0,1-3.09,1.709l-.005,0c-1.053.2-1.3,1-.555,1.771l0,0a5.629,5.629,0,0,1,1.378,3.345l.012.759c.013,1.072.526,1.233,1.151.361Z" transform="translate(-77.556 -32.211)" fill="#ffe2a8" stroke="#000" stroke-width="1"/>
      </g>
      <path id="Caminho_93" data-name="Caminho 93" d="M57.431,116.342s10.907-4.912,16.729,5.15c0,0,4.815-3.892,4.815-5.018l-22.248-6.266S55.469,114.379,57.431,116.342Z" transform="translate(-30.782 -90.924)" fill="#6e6e96" opacity="0.25"/>
      <g id="Grupo_22" data-name="Grupo 22" transform="translate(41.916 10.007)">
        <path id="Caminho_94" data-name="Caminho 94" d="M151,59.52a5.674,5.674,0,0,1,3.042-1.96h0c1.056-.2,1.305-1,.555-1.771l0,0a6.409,6.409,0,0,1-1.557-3.166c-.11-.973-.729-1.167-1.376-.431a6.373,6.373,0,0,1-3.09,1.709l-.005,0c-1.053.2-1.3,1-.555,1.771l0,0a5.629,5.629,0,0,1,1.378,3.345l.012.759c.013,1.072.526,1.233,1.151.361Z" transform="translate(-147.588 -51.741)" fill="#ffe2a8" stroke="#000" stroke-width="1"/>
      </g>
      <ellipse id="Elipse_43" data-name="Elipse 43" cx="19.681" cy="17.85" rx="19.681" ry="17.85" transform="translate(18.704 2)" fill="none" stroke="#000" stroke-width="2"/>
    </g>
  </g>
</svg>
