<svg xmlns="http://www.w3.org/2000/svg" width="61" height="56" viewBox="0 0 61 56">
  <g id="Grupo_154" data-name="Grupo 154" transform="translate(-21 -159)">
    <g id="Grupo_125" data-name="Grupo 125" transform="translate(-107 80)">
      <path id="Caminho_132" data-name="Caminho 132" d="M0,33Z" transform="translate(128 74)" fill="rgba(42,100,245,0.32)"/>
      <circle id="Elipse_29" data-name="Elipse 29" cx="28" cy="28" r="28" transform="translate(133 79)"/>
    </g>
    <g id="Grupo_126" data-name="Grupo 126" transform="translate(-69.443 128.962)">
      <g id="Camada_x0020_1" transform="translate(106.01 49.445)">
        <g id="_2059580279440" transform="translate(0 0)">
          <path id="Caminho_3" data-name="Caminho 3" d="M3150.7,529.152c.249.106.321.191.456.524.064,1.613-1.593,1.341-3.107,1.341-1.463,0-3.061-.061-4.507.008a6.211,6.211,0,0,1-.385,1.226,3.425,3.425,0,0,1-.7,1,3.76,3.76,0,0,1-2.2,1.1l-.391.117.011,1.349a19.462,19.462,0,0,0,2.373-.059c.4-.179.539-.344.562-.883.077-1.764-.917-1.435,3.488-1.443,2.144,0,1.441-.2,2.567.918l.861.891a1.42,1.42,0,0,0,1.128.6c.515.016,3.145.067,3.465-.015-.644-.834-2.506-2.289-2.687-2.693.255-.145.752-.239,1.072-.38,2.34-1.027,3.075-4.468-.572-5.875-1.573-.607-3.571-.455-5.425-.455-.87,0-5.5-.055-5.936.01.046.214.568.572.777.748.677.569,1.193,1.576,1.5,1.653.213.054,1.306,0,1.615,0q1.578,0,3.155,0C3148.75,528.838,3150.011,528.671,3150.7,529.152Z" transform="translate(-3118.159 -522.774)" fill="#fefefe" fill-rule="evenodd"/>
          <path id="Caminho_4" data-name="Caminho 4" d="M5.253,973.42c-1.141-.116-6.445.163-6.968-.051-.219-.163.1-1.146-.138-1.39a12.874,12.874,0,0,0-2.8-.042.278.278,0,0,0-.053.146.907.907,0,0,0-.018.167c-.005.12.008.286.009.412.013.9-.088,5.4.06,5.559a5.629,5.629,0,0,0,2.459-.133c.83-.48.108-1.72.484-2.2a27.929,27.929,0,0,1,3.376-.066c2-.015,1.558-.208,2.6.9,1.676,1.775,1.235,1.537,3.709,1.533.52,0,1.266.054,1.751.01-.048-.276-1.328-1.386-1.611-1.653-1.963-1.854-1.359-3.141-2.866-3.192Z" transform="translate(4.732 -965.179)" fill="#fefefe" fill-rule="evenodd"/>
          <path id="Caminho_5" data-name="Caminho 5" d="M7.078,525.483c.4.077.466.267.823.339.126-.165,1.656-2.106,1.671-2.17-1.821-.882-4.9-.664-7.276-.664-1.324,0-2.649,0-3.973,0-.668,0-1.231.094-1.443.548a6.045,6.045,0,0,0-.046,1.879c.293.1,6.468.031,7.683.034.8,0,1.842.066,2.562.036Z" transform="translate(3.229 -519.362)" fill="#fefefe" fill-rule="evenodd"/>
          <path id="Caminho_6" data-name="Caminho 6" d="M1662.607,13.448c-.186.365-.361.291-.433.646l.6-.021c.318-.1.17-.422.392-.805a5.318,5.318,0,0,0,.984-2.838c-.312,0-1.04.752-1.861,1.018-2.789.905-5.14-1.6-3.67-3.89,1.1-1.706,3.1-2.842,4.439-4.388a20.339,20.339,0,0,1,1.341-1.625,5.122,5.122,0,0,1,.645.8c1.531,1.975,4.062,3.53,5.125,5.159a2.562,2.562,0,0,1-1.04,3.837,3.416,3.416,0,0,1-2.444.128c-1.082-.384-1.32-1.071-1.953-1.08a5.7,5.7,0,0,0,.845,2.731c.01.012.027.014.032.035.03.132.185.067.294.521-.184.047-.232.024-.281.3a1.567,1.567,0,0,0,1.025.05,7.049,7.049,0,0,1-1.46-2.957c.5.109.809.781,2.15.942a3.333,3.333,0,0,0,3.64-2.374c.432-1.375-1-3.242-1.959-4.018a23.645,23.645,0,0,1-3.884-3.77,3.093,3.093,0,0,0-.734-.849A17.8,17.8,0,0,0,1663,2.652c-1.351,1.428-3.891,3.459-4.586,4.521a3.03,3.03,0,0,0-.568,2.376,3.459,3.459,0,0,0,5.263,1.924,1.766,1.766,0,0,1,.5-.282C1663.677,11.9,1662.881,13,1662.607,13.448Z" transform="translate(-1646.308 -1)" fill="#fefefe" fill-rule="evenodd"/>
          <path id="Caminho_7" data-name="Caminho 7" d="M22.263,1989.336l0,.073,3.643-.02c1.232-.008,2.479.03,3.681.043,2.427.026,4.874-.006,7.3-.008l14.687.009c.952.094,2.418.015,3.426.013l3.385-.068c.1-.058.069.155.067-.117,0-.124-.011-.078-.049-.131l-.018.247c-.324-.08-7.649-.064-7.749-.026l.858-.016c.077-.1.081.146.067-.205l-22.249.007.053.209-7.1-.01Z" transform="translate(-22.074 -1975.41)" fill="#fefefe" fill-rule="evenodd"/>
          <path id="Caminho_8" data-name="Caminho 8" d="M1.253,1973.525c-.116-.036-.1-.06-.062.055-.008.013-.025.018-.024.039s-.015.031-.014.038c.023.14,0,.043.053.105-.042.114-.038.065.093.033a23.8,23.8,0,0,0,3.585.069c1.227-.007,2.463,0,3.681.024,2.427.056,4.926-.006,7.362,0l12.855.014c.312,0,.623-.006.935-.013.158,0,.312,0,.47,0,.295,0,.3.007.428-.063l-14.687-.009c-2.429,0-4.877.034-7.3.008-1.2-.013-2.449-.051-3.681-.043l-3.643.02,0-.072-.1.04-.014-.182c.094.018.075.039.062-.055h7.1l22.249-.007h6.842c-.316-.178-26.92-.065-31.684-.079a33.413,33.413,0,0,0-4.506.087Z" transform="translate(-1.111 -1959.796)" fill="#fefefe" fill-rule="evenodd"/>
          <path id="Caminho_9" data-name="Caminho 9" d="M1239.37,2257.031h-1.431c-1.577,0-1.289,1.553-.234,1.554,1.48,0,1.73.21,1.731-.466a1.224,1.224,0,0,0-.07-.458l-1.135-.007c-.363,0-.392-.082-.44.231a1.221,1.221,0,0,0,.674.077,3.319,3.319,0,0,1,.673.018l0,.343a5.641,5.641,0,0,1-1.449-.008c-.515-.085-.742-.5-.428-.875.332-.312,1.406-.095,1.97-.172Z" transform="translate(-1228.266 -2241.46)" fill="#fefefe" fill-rule="evenodd"/>
          <path id="Caminho_10" data-name="Caminho 10" d="M3180.854,2254.863c.413.034,1.019-.106,1.381.075l-.048.346c-.3.066-2.077.257-2.021-.573.033-.486.493-.521.8-.523.451,0,.893,0,1.345.008l.043-.229a14.766,14.766,0,0,0-1.676,0c-1.076.1-1.072,1.563.171,1.555a10.211,10.211,0,0,0,1.6-.039,1.441,1.441,0,0,0-.043-.812c-.156-.174-1.315-.091-1.54-.067Z" transform="translate(-3157.918 -2238.396)" fill="#fefefe" fill-rule="evenodd"/>
          <path id="Caminho_11" data-name="Caminho 11" d="M2206.981,2255.253l-.955.041c.124.2-.073.125.2.2.477.136,2-.324,2.028.364a20.568,20.568,0,0,0-2.228.058c-.012.01-.276.639.024.846.209-.091.078.078.144-.241.052-.25-.123-.344.5-.336a9.587,9.587,0,0,1,1.468.05c.192.292-.06.474.346.512a9.082,9.082,0,0,0-.006-.943.465.465,0,0,0-.465-.544C2207.75,2255.231,2207.28,2255.255,2206.981,2255.253Z" transform="translate(-2190.647 -2239.689)" fill="#fefefe" fill-rule="evenodd"/>
          <path id="Caminho_12" data-name="Caminho 12" d="M3656.177,2343.131a11.7,11.7,0,0,1,1.195-.009c.555,0,1.136.121,1.075-.2-.033-.173-.233-.12-.608-.115-.214,0-.429,0-.643,0-.881,0-1.614-.3-1.266.93l2.562-.03c-.051-.313-.065-.224-.474-.208l-1.846-.023Z" transform="translate(-3630.579 -2326.62)" fill="#fefefe" fill-rule="evenodd"/>
          <path id="Caminho_13" data-name="Caminho 13" d="M6.75,1990.167l.014.182.1-.04,7.1.01-.053-.208h-7.1c.013.094.032.074-.062.055Z" transform="translate(-6.671 -1976.383)" fill="#fefefe" fill-rule="evenodd"/>
          <path id="Caminho_14" data-name="Caminho 14" d="M4141.989,1989.378l.019-.247h-6.842c.012.351.009.11-.067.205l-.858.016C4134.34,1989.314,4141.666,1989.3,4141.989,1989.378Z" transform="translate(-4105.677 -1975.41)" fill="#fefefe" fill-rule="evenodd"/>
          <path id="Caminho_15" data-name="Caminho 15" d="M2706.38,2274.371c.312-.009.262-.01.406-.206a3.707,3.707,0,0,1,.266-.314c.181-.2.3-.37.516-.57.389.187.693.966,1.242,1.146-.011-.441-1.069-1.43-1.242-1.506A4.305,4.305,0,0,0,2706.38,2274.371Z" transform="translate(-2687.67 -2257.242)" fill="#fefefe" fill-rule="evenodd"/>
          <path id="Caminho_16" data-name="Caminho 16" d="M1741.839,2279.821c-.106.146-.209.253-.327.389-.244.285-.224.106-.293.47.455-.049.318-.205.475-.409.088-.115-.021,0,.115-.1.186-.162.306-.354.515-.537.311.083.441.333.644.559a3.616,3.616,0,0,1,.261.323c.125.166.129.191.4.168-.1-.44-.582-.763-.911-1.179-.175-.221-.126-.217-.5-.207A3.5,3.5,0,0,0,1741.839,2279.821Z" transform="translate(-1729.171 -2263.573)" fill="#fefefe" fill-rule="evenodd"/>
          <path id="Caminho_17" data-name="Caminho 17" d="M3670.321,2247.536c.082.2.968.081,1.145.079.213,0,.43,0,.643,0,.693.018.465.081.589-.093l-2.376.012-.057-.176a19.821,19.821,0,0,1,2.485.084c-.087-.188-.149-.129-.641-.126-.234,0-.468,0-.7,0-.694,0-1.071-.137-1.2.126C3670.32,2247.6,3670.241,2247.478,3670.321,2247.536Z" transform="translate(-3644.849 -2231.781)" fill="#fefefe" fill-rule="evenodd"/>
          <path id="Caminho_18" data-name="Caminho 18" d="M3678.147,2258.746l2.376-.013.052-.08a19.817,19.817,0,0,0-2.485-.083Z" transform="translate(-3652.674 -2242.99)" fill="#fefefe" fill-rule="evenodd"/>
          <path id="Caminho_19" data-name="Caminho 19" d="M3133.253,1680.386a19.414,19.414,0,0,1-2.372.059l-.012-1.349.391-.117c-.5.012-.443.031-.441.519a5.242,5.242,0,0,0,.02.969,9.167,9.167,0,0,0,2.284-.018c.015-.005.031-.013.044-.018Z" transform="translate(-3109.167 -1667.4)" fill="#fefefe" fill-rule="evenodd"/>
          <path id="Caminho_20" data-name="Caminho 20" d="M4711.005,925.724c-.134-.333-.208-.418-.455-.524l.068.069C4710.99,925.584,4710.72,925.412,4711.005,925.724Z" transform="translate(-4678.009 -918.822)" fill="#7c7c7b" fill-rule="evenodd"/>
        </g>
      </g>
    </g>
  </g>
</svg>
