<svg xmlns="http://www.w3.org/2000/svg" width="22.426" height="13.283" viewBox="0 0 22.426 13.283">
  <g id="Grupo_145" data-name="Grupo 145" transform="translate(-392.822 -510.359)">
    <g id="eye_89413_1_" data-name="eye_89413 (1)" transform="translate(392.822 494.713)">
      <g id="Grupo_144" data-name="Grupo 144" transform="translate(0 15.645)">
        <path id="Caminho_138" data-name="Caminho 138" d="M22.3,21.913c-3.521-4.267-7.306-6.366-11.252-6.265C4.677,15.827.3,21.69.112,21.939c-.008.012-.014.025-.022.037S.079,21.995.073,22a.541.541,0,0,0-.034.071c0,.012-.008.023-.012.035a.592.592,0,0,0-.018.07c0,.015,0,.03-.006.046a.511.511,0,0,0,0,.12c0,.015,0,.03.006.046a.592.592,0,0,0,.018.07c0,.012.008.023.012.035a.581.581,0,0,0,.034.071L.09,22.6c.007.012.013.025.022.037.184.25,4.565,6.112,10.931,6.29.1,0,.2,0,.294,0,3.839,0,7.524-2.108,10.958-6.269a.6.6,0,0,0,0-.746ZM11.083,27.756c-4.949-.135-8.732-4.242-9.753-5.47,1.022-1.228,4.8-5.335,9.753-5.47,3.455-.09,6.81,1.75,9.994,5.47C17.893,26.007,14.541,27.856,11.083,27.756Z" transform="translate(0 -15.645)" fill="#2a74f5"/>
        <path id="Caminho_139" data-name="Caminho 139" d="M30.056,25.206A3.847,3.847,0,1,0,33.9,29.053,3.852,3.852,0,0,0,30.056,25.206Zm0,6.526a2.679,2.679,0,1,1,2.679-2.679A2.682,2.682,0,0,1,30.056,31.732Z" transform="translate(-18.55 -22.412)" fill="#2a74f5"/>
      </g>
    </g>
  </g>
</svg>
