<svg xmlns="http://www.w3.org/2000/svg" xmlns:xlink="http://www.w3.org/1999/xlink" width="22.863" height="15.788" viewBox="0 0 22.863 15.788">
  <defs>
    <linearGradient id="linear-gradient" x1="-0.115" y1="0.482" x2="1.069" y2="0.5" gradientUnits="objectBoundingBox">
      <stop offset="0" stop-color="#2a89f5"/>
      <stop offset="1" stop-color="#2a64f5"/>
    </linearGradient>
  </defs>
  <g id="not-visible-interface-symbol-of-an-eye-with-a-slash-on-it_icon-icons.com_57783" transform="translate(0 -76.95)">
    <path id="Caminho_28" data-name="Caminho 28" d="M4.483,89.152A13.473,13.473,0,0,1,0,84.844a13.505,13.505,0,0,1,11.429-6.156,12.087,12.087,0,0,1,3.163.349l-.7.7a21.723,21.723,0,0,0-2.46-.175A12.673,12.673,0,0,0,1.053,84.844,12.459,12.459,0,0,0,5.1,88.536Zm3.43-4.308A2.446,2.446,0,0,0,8,85.635l.791-.791A2.531,2.531,0,0,1,9.581,83a2.68,2.68,0,0,1,1.848-.791l.791-.791a2.446,2.446,0,0,0-.791-.087A3.526,3.526,0,0,0,7.912,84.844Zm10.464-4.308-.616.616a12.46,12.46,0,0,1,4.046,3.692,12.673,12.673,0,0,1-10.376,5.278,21.711,21.711,0,0,1-2.46-.175l-.7.7A12.123,12.123,0,0,0,11.434,91a13.505,13.505,0,0,0,11.429-6.156A13.518,13.518,0,0,0,18.376,80.536Zm.078-3.586L3.535,91.869l.869.869L19.328,77.814Zm-5.177,9.742a2.531,2.531,0,0,1-1.848.791l-.791.791a2.446,2.446,0,0,0,.791.087,3.526,3.526,0,0,0,3.517-3.517,2.446,2.446,0,0,0-.087-.791l-.791.791A2.55,2.55,0,0,1,13.277,86.692Z" transform="translate(0 0)" fill="url(#linear-gradient)"/>
  </g>
</svg>
