<svg xmlns="http://www.w3.org/2000/svg" xmlns:xlink="http://www.w3.org/1999/xlink" width="50" height="50" viewBox="0 0 50 50">
  <defs>
    <linearGradient id="linear-gradient" x1="0.07" y1="0.835" x2="0.623" y2="0.828" gradientUnits="objectBoundingBox">
      <stop offset="0" stop-color="#2a89f5"/>
      <stop offset="1" stop-color="#2a64f5"/>
    </linearGradient>
  </defs>
  <g id="Grupo_149" data-name="Grupo 149" transform="translate(-44 -79)">
    <circle id="Elipse_50" data-name="Elipse 50" cx="25" cy="25" r="25" transform="translate(44 79)" fill="url(#linear-gradient)"/>
    <g id="about" transform="translate(56 91)">
      <path id="Caminho_108" data-name="Caminho 108" d="M14.321,12.3a5.238,5.238,0,0,0,5.321-5.15A5.238,5.238,0,0,0,14.321,2,5.238,5.238,0,0,0,9,7.15,5.238,5.238,0,0,0,14.321,12.3Zm0-8.829a3.741,3.741,0,0,1,3.8,3.679,3.8,3.8,0,0,1-7.6,0A3.741,3.741,0,0,1,14.321,3.472Z" transform="translate(-1.321)" fill="#fff"/>
      <path id="Caminho_109" data-name="Caminho 109" d="M13.75,18h-1.5A8.173,8.173,0,0,0,4,26.094a.743.743,0,0,0,.75.736h16.5a.743.743,0,0,0,.75-.736A8.173,8.173,0,0,0,13.75,18Zm-8.2,7.358a6.7,6.7,0,0,1,6.705-5.886h1.5a6.7,6.7,0,0,1,6.705,5.886Z" transform="translate(0 -3.829)" fill="#fff"/>
    </g>
  </g>
</svg>
