<svg xmlns="http://www.w3.org/2000/svg" width="41.955" height="58.561" viewBox="0 0 41.955 58.561">
  <g id="Grupo_28" data-name="Grupo 28" transform="translate(-190 -699.439)">
    <text id="Regular" transform="translate(211 754)" fill="#fff" font-size="10" font-family="Poppins-Regular, Poppins"><tspan x="-19.195" y="0">Regular</tspan></text>
    <g id="_3338078-emoji-face-mouth-smiley_106814" data-name="3338078-emoji-face-mouth-smiley_106814" transform="translate(189 698.439)">
      <ellipse id="Elipse_33" data-name="Elipse 33" cx="19.978" cy="18.22" rx="19.978" ry="18.22" transform="translate(2 2)" fill="#ffe585"/>
      <path id="Caminho_81" data-name="Caminho 81" d="M8.2,0" transform="translate(18.149 42)" fill="none" stroke="#000" stroke-linecap="round" stroke-width="2" opacity="0.29"/>
      <path id="Caminho_82" data-name="Caminho 82" d="M0,0" transform="translate(12.196 42)" fill="none" stroke="#000" stroke-linecap="round" stroke-width="2" opacity="0.17"/>
      <circle id="Elipse_34" data-name="Elipse 34" cx="1.538" cy="1.538" r="1.538" transform="translate(12.42 15.448)"/>
      <path id="Caminho_79" data-name="Caminho 79" d="M26.178,5.947c-.185,0-.369,0-.552.007,9.791.254,17.643,7.559,17.643,16.534,0,9.136-8.135,16.542-18.17,16.542S6.928,31.624,6.928,22.489a15.173,15.173,0,0,1,.581-4.166A16.377,16.377,0,0,0,6.568,23.8c0,9.859,8.78,17.852,19.61,17.852s19.61-7.993,19.61-17.852S37.008,5.947,26.178,5.947Z" transform="translate(-3.787 -3.272)" fill="#f90" opacity="0.24"/>
      <circle id="Elipse_35" data-name="Elipse 35" cx="1.538" cy="1.538" r="1.538" transform="translate(28.243 15.448)"/>
      <ellipse id="Elipse_36" data-name="Elipse 36" cx="2.97" cy="1.386" rx="2.97" ry="1.386" transform="translate(10.77 23.457)" fill="red" opacity="0.18"/>
      <ellipse id="Elipse_37" data-name="Elipse 37" cx="2.969" cy="1.386" rx="2.969" ry="1.386" transform="translate(26.574 23.457)" fill="red" opacity="0.18"/>
      <path id="Caminho_80" data-name="Caminho 80" d="M3.979,21.065c0-9.354,8.336-16.937,18.62-16.937,10.061,0,18.256,7.258,18.607,16.331.008-.206.013-.413.013-.621C41.219,9.986,32.44,2,21.61,2S2,9.986,2,19.837c0,8.2,6.084,15.107,14.37,17.193C9.15,34.7,3.979,28.432,3.979,21.065Z" fill="#ffefb5"/>
      <ellipse id="Elipse_38" data-name="Elipse 38" cx="19.978" cy="18.22" rx="19.978" ry="18.22" transform="translate(2 2)" fill="none" stroke="#000" stroke-width="2"/>
    </g>
  </g>
</svg>
