<svg xmlns="http://www.w3.org/2000/svg" width="41.194" height="59.544" viewBox="0 0 41.194 59.544">
  <g id="Grupo_29" data-name="Grupo 29" transform="translate(-110.353 -698.456)">
    <text id="Ruim" transform="translate(131 754)" fill="#fff" font-size="10" font-family="Poppins-Regular, Poppins"><tspan x="-12.62" y="0">Ruim</tspan></text>
    <g id="_3338080-emoji-emoticon-sleep-sleeping_106807" data-name="3338080-emoji-emoticon-sleep-sleeping_106807" transform="translate(109 697.103)">
      <ellipse id="Elipse_44" data-name="Elipse 44" cx="19.412" cy="17.597" rx="19.412" ry="17.597" transform="translate(2.577 2.577)" fill="#ffe585"/>
      <path id="Caminho_103" data-name="Caminho 103" d="M14,0" transform="translate(17.965 42)" fill="none" stroke="#6e6e96" stroke-linecap="round" stroke-width="2" opacity="0.17"/>
      <path id="Caminho_104" data-name="Caminho 104" d="M0,0" transform="translate(12.196 42)" fill="none" stroke="#000" stroke-linecap="round" stroke-width="2" opacity="0.17"/>
      <path id="Caminho_96" data-name="Caminho 96" d="M26.165,5.947c-.184,0-.368,0-.552.008,9.785.253,17.632,7.53,17.632,16.47,0,9.1-8.13,16.478-18.159,16.478S6.928,31.525,6.928,22.425a15.07,15.07,0,0,1,.581-4.15,16.266,16.266,0,0,0-.941,5.455c0,9.821,8.774,17.783,19.6,17.783s19.6-7.962,19.6-17.783S36.988,5.947,26.165,5.947Z" transform="translate(-3.762 -3.251)" fill="#f90" opacity="0.24"/>
      <path id="Caminho_97" data-name="Caminho 97" d="M3.978,20.978c0-9.312,8.331-16.86,18.608-16.86,10.054,0,18.244,7.225,18.6,16.257.008-.205.013-.411.013-.619C41.194,9.95,32.42,2,21.6,2S2,9.95,2,19.756C2,27.919,8.08,34.794,16.361,36.87,9.145,34.55,3.978,28.311,3.978,20.978Z" fill="#ffefb5"/>
      <path id="Caminho_98" data-name="Caminho 98" d="M29.959,38.607a21.39,21.39,0,0,1-6.362.958C12.774,39.565,4,31.6,4,21.783S12.774,4,23.6,4s19.6,7.962,19.6,17.783a16.625,16.625,0,0,1-3.7,10.4" transform="translate(-1.647 -1.647)" fill="none" stroke="#000" stroke-linecap="round" stroke-linejoin="round" stroke-width="2"/>
      <path id="Caminho_99" data-name="Caminho 99" d="M50.5,111.163a3.873,3.873,0,0,0,6,0" transform="translate(-39.755 -91.249)" fill="none" stroke="#000" stroke-linecap="round" stroke-linejoin="round" stroke-width="2"/>
      <path id="Caminho_100" data-name="Caminho 100" d="M134.5,111.163a3.873,3.873,0,0,0,6,0" transform="translate(-108.606 -91.249)" fill="none" stroke="#000" stroke-linecap="round" stroke-linejoin="round" stroke-width="2"/>
      <path id="Caminho_101" data-name="Caminho 101" d="M92.285,164.943c0-2.258-2.19-4.089-4.892-4.089s-4.892,1.831-4.892,4.089Z" transform="translate(-65.945 -132.919)" fill="#c7a17b" stroke="#000" stroke-linecap="round" stroke-linejoin="round" stroke-width="2"/>
      <path id="Caminho_102" data-name="Caminho 102" d="M139.519,146.425a12.9,12.9,0,0,0-3.147-5.033s13.249,6.485,8.665,11.069C141.448,155.27,140.82,150.2,139.519,146.425Z" transform="translate(-110.079 -117.696)" fill="#89e0f5" stroke="#000" stroke-linecap="round" stroke-linejoin="round" stroke-width="2"/>
    </g>
  </g>
</svg>
