<svg xmlns="http://www.w3.org/2000/svg" xmlns:xlink="http://www.w3.org/1999/xlink" width="50" height="50" viewBox="0 0 50 50">
  <defs>
    <linearGradient id="linear-gradient" x1="0.07" y1="0.835" x2="0.623" y2="0.828" gradientUnits="objectBoundingBox">
      <stop offset="0" stop-color="#2a89f5"/>
      <stop offset="1" stop-color="#2a64f5"/>
    </linearGradient>
  </defs>
  <g id="Grupo_153" data-name="Grupo 153" transform="translate(-44 -367)">
    <circle id="Elipse_54" data-name="Elipse 54" cx="25" cy="25" r="25" transform="translate(44 367)" fill="url(#linear-gradient)"/>
    <g id="Grupo_38" data-name="Grupo 38">
      <line id="Linha_7" data-name="Linha 7" x2="13" transform="translate(67.495 392.5)" fill="none" stroke="#fff" stroke-linecap="round" stroke-linejoin="round" stroke-width="2"/>
      <path id="Caminho_114" data-name="Caminho 114" d="M23.93,25v3h-16V4h16V7h2V3a1,1,0,0,0-1-1h-18a1,1,0,0,0-1,1V29a1,1,0,0,0,1,1h18a1,1,0,0,0,1-1V25Z" transform="translate(51.575 376.5)" fill="#fff"/>
      <path id="Caminho_115" data-name="Caminho 115" d="M4,0,0,4" transform="translate(76.495 392.5)" fill="none" stroke="#fff" stroke-linecap="round" stroke-width="2"/>
      <line id="Linha_9" data-name="Linha 9" x1="4" y1="4" transform="translate(76.495 388.5)" fill="none" stroke="#fff" stroke-linecap="round" stroke-linejoin="round" stroke-width="2"/>
      <line id="Linha_10" data-name="Linha 10" y1="2" transform="translate(76.495 382.59)" fill="none" stroke="#fff" stroke-linecap="round" stroke-linejoin="round" stroke-width="2"/>
      <line id="Linha_11" data-name="Linha 11" y1="2" transform="translate(76.495 400.5)" fill="none" stroke="#fff" stroke-linecap="round" stroke-linejoin="round" stroke-width="2"/>
    </g>
  </g>
</svg>
