<svg xmlns="http://www.w3.org/2000/svg" xmlns:xlink="http://www.w3.org/1999/xlink" width="50" height="50" viewBox="0 0 50 50">
  <defs>
    <linearGradient id="linear-gradient" x1="0.07" y1="0.835" x2="0.623" y2="0.828" gradientUnits="objectBoundingBox">
      <stop offset="0" stop-color="#2a89f5"/>
      <stop offset="1" stop-color="#2a64f5"/>
    </linearGradient>
  </defs>
  <g id="Grupo_152" data-name="Grupo 152" transform="translate(-44 -295)">
    <circle id="Elipse_54" data-name="Elipse 54" cx="25" cy="25" r="25" transform="translate(44 295)" fill="url(#linear-gradient)"/>
    <g id="bell_114814" transform="translate(31.053 306.43)">
      <g id="Grupo_124" data-name="Grupo 124" transform="translate(26.028)">
        <path id="Caminho_129" data-name="Caminho 129" d="M49.745,23.629,47.539,20.75V12.231a9.676,9.676,0,0,0-6.442-9.1,3.146,3.146,0,0,0-6.29-.062A9.681,9.681,0,0,0,28.2,12.231V20.76l-2.06,2.885a.589.589,0,0,0,.48.932h8.239a3.146,3.146,0,0,0,6.182,0h8.239a.583.583,0,0,0,.526-.328A.59.59,0,0,0,49.745,23.629Zm-11.8-22.45a1.973,1.973,0,0,1,1.934,1.6,9.553,9.553,0,0,0-3.862-.032A1.975,1.975,0,0,1,37.948,1.178Zm0,24.783a1.967,1.967,0,0,1-1.871-1.384H39.82A1.968,1.968,0,0,1,37.948,25.961ZM27.764,23.4l1.505-2.107a.586.586,0,0,0,.11-.342V12.231a8.491,8.491,0,1,1,16.982,0v8.718a.59.59,0,0,0,.122.359l1.6,2.09H27.764Z" transform="translate(-26.028)" fill="#fff"/>
        <path id="Caminho_130" data-name="Caminho 130" d="M115.66,313.706h-13.02a.589.589,0,1,0,0,1.178h13.02a.589.589,0,1,0,0-1.178Z" transform="translate(-97.23 -293.812)" fill="#fff"/>
        <path id="Caminho_131" data-name="Caminho 131" d="M102.484,98.57a.424.424,0,0,0,.053,0,.59.59,0,0,0,.535-.64c-.019-.218-.425-5.342,4.106-6.439a.589.589,0,1,0-.277-1.145c-5.507,1.332-5.008,7.626-5,7.69A.589.589,0,0,0,102.484,98.57Z" transform="translate(-97.073 -84.6)" fill="#fff"/>
      </g>
    </g>
  </g>
</svg>
