<svg id="_1904659-arrow-backup-down-download-save-storage-transfer_122509" data-name="1904659-arrow-backup-down-download-save-storage-transfer_122509" xmlns="http://www.w3.org/2000/svg" width="28.502" height="28.502" viewBox="0 0 28.502 28.502">
  <path id="Caminho_133" data-name="Caminho 133" d="M40.494,20.735h0a.668.668,0,0,0,.1.08l.053.029a.387.387,0,0,0,.131.053l.056.016h0a.668.668,0,0,0,.258,0l.058-.018.067-.02a.668.668,0,0,0,.067-.036l.047-.027a.668.668,0,0,0,.1-.085l5.992-5.985a.668.668,0,1,0-.937-.937l-4.852,4.845V.668a.668.668,0,1,0-1.336,0V18.651l-4.852-4.845a.668.668,0,0,0-.937.937Z" transform="translate(-26.715)" fill="#2a6af5"/>
  <path id="Caminho_134" data-name="Caminho 134" d="M27.834,88a.668.668,0,0,0-.668.668v4.9a2,2,0,0,1-2,2H3.34a2,2,0,0,1-2-2v-4.9a.668.668,0,0,0-1.336,0v4.9a3.34,3.34,0,0,0,3.34,3.34H25.162a3.34,3.34,0,0,0,3.34-3.34v-4.9A.668.668,0,0,0,27.834,88Z" transform="translate(0 -68.405)" fill="#2a6af5"/>
</svg>
